<svg width="511" height="570" viewBox="0 0 511 570" fill="none" xmlns="http://www.w3.org/2000/svg">
<circle cx="255.75" cy="262.75" r="166.424" fill="#597EF7"/>
<path d="M444 451H68C61.3726 451 56 456.373 56 463C56 469.627 61.3726 475 68 475H444C450.627 475 456 469.627 456 463C456 456.373 450.627 451 444 451Z" fill="#E4EBF7"/>
<path fill-rule="evenodd" clip-rule="evenodd" d="M424.444 121.221H220.523V102.91C220.523 98.9379 223.737 95.7175 227.701 95.7175H417.267C421.231 95.7175 424.444 98.9379 424.444 102.91V121.221Z" fill="#253368"/>
<path fill-rule="evenodd" clip-rule="evenodd" d="M417.267 297.525H227.701C223.737 297.525 220.523 294.305 220.523 290.332V119.076H424.444V290.332C424.444 294.305 421.231 297.525 417.267 297.525Z" fill="#E4EBF7"/>
<path fill-rule="evenodd" clip-rule="evenodd" d="M237.096 107.586C237.096 110.079 235.079 112.1 232.591 112.1C230.103 112.1 228.087 110.079 228.087 107.586C228.087 105.094 230.103 103.073 232.591 103.073C235.079 103.073 237.096 105.094 237.096 107.586Z" fill="#FF7946"/>
<path fill-rule="evenodd" clip-rule="evenodd" d="M253.917 107.586C253.917 110.079 251.9 112.1 249.412 112.1C246.925 112.1 244.908 110.079 244.908 107.586C244.908 105.094 246.925 103.073 249.412 103.073C251.9 103.073 253.917 105.094 253.917 107.586Z" fill="#FAAD14"/>
<path fill-rule="evenodd" clip-rule="evenodd" d="M270.738 107.586C270.738 110.079 268.722 112.1 266.234 112.1C263.746 112.1 261.73 110.079 261.73 107.586C261.73 105.094 263.746 103.073 266.234 103.073C268.722 103.073 270.738 105.094 270.738 107.586Z" fill="#7CB305"/>
<path fill-rule="evenodd" clip-rule="evenodd" d="M242.563 273.251C241.326 273.251 240.324 272.247 240.324 271.009V141.004C240.324 139.766 241.326 138.761 242.563 138.761H404.632C405.869 138.761 406.871 139.766 406.871 141.004V271.009C406.871 272.247 405.869 273.251 404.632 273.251H242.563Z" fill="white"/>
<path d="M296.61 195.428C297.543 194.63 298.954 194.809 299.66 195.801L299.697 195.854L332.31 244.738L357.537 227.012C357.836 226.802 358.184 226.675 358.547 226.642L358.625 226.637L391.958 224.897C393.106 224.837 394.086 225.72 394.146 226.868C394.205 227.996 393.354 228.962 392.235 229.052L392.175 229.056L359.441 230.764L332.959 249.372C332.019 250.033 330.727 249.806 330.066 248.877L330.03 248.824L297.535 200.118L259.558 232.633C258.701 233.367 257.419 233.282 256.664 232.453L256.622 232.405C255.888 231.548 255.973 230.266 256.802 229.511L256.85 229.469L296.61 195.428Z" fill="#FF7946"/>
<path d="M387.022 165.926C387.662 164.971 388.956 164.716 389.911 165.357C390.849 165.986 391.112 167.244 390.515 168.193L390.481 168.246L360.825 212.466C360.082 213.575 358.507 213.703 357.592 212.746L357.547 212.698L323.652 174.984L300.156 190.838C299.825 191.061 299.436 191.184 299.037 191.193L298.958 191.193L258.17 190.527C257.02 190.508 256.103 189.561 256.122 188.411C256.141 187.281 257.055 186.376 258.178 186.363L258.238 186.363L298.37 187.019L322.825 170.519C323.668 169.95 324.796 170.075 325.494 170.806L325.538 170.853L358.856 207.924L387.022 165.926Z" fill="#FAAD14"/>
<path d="M335.648 194.245C336.168 193.791 336.877 193.625 337.542 193.797L337.611 193.816L359.325 200.257L391.329 195.158C392.445 194.98 393.495 195.724 393.703 196.827L393.713 196.887C393.891 198.002 393.147 199.052 392.044 199.26L391.985 199.271L359.514 204.444C359.235 204.489 358.95 204.476 358.676 204.407L358.594 204.384L337.526 198.135L300.918 230.153C300.243 230.743 299.27 230.834 298.5 230.385L298.442 230.351L254.707 202.986C253.732 202.376 253.436 201.091 254.046 200.116C254.645 199.159 255.895 198.856 256.863 199.423L256.916 199.455L299.34 226L335.648 194.245Z" fill="#597EF7"/>
<path fill-rule="evenodd" clip-rule="evenodd" d="M298.097 155.781H257.071C255.391 155.781 254.018 154.404 254.018 152.721C254.018 151.038 255.391 149.661 257.071 149.661H298.097C299.777 149.661 301.151 151.038 301.151 152.721C301.151 154.404 299.777 155.781 298.097 155.781Z" fill="#CCD7EE"/>
<path fill-rule="evenodd" clip-rule="evenodd" d="M274.377 170.214H259.108C257.422 170.214 256.054 168.844 256.054 167.154C256.054 165.463 257.422 164.094 259.108 164.094H274.377C276.063 164.094 277.43 165.463 277.43 167.154C277.43 168.844 276.063 170.214 274.377 170.214Z" fill="#CCD7EE"/>
<path d="M385.002 236.802C377.851 236.802 372.07 242.677 372.07 249.905C372.07 257.133 377.851 263.009 385.002 263.009C392.153 263.009 397.933 257.133 397.933 249.905C397.933 242.677 392.153 236.802 385.002 236.802ZM385.002 241.731C389.412 241.731 393.004 245.382 393.004 249.905C393.004 254.429 389.412 258.08 385.002 258.08C380.591 258.08 376.999 254.429 376.999 249.905C376.999 245.382 380.591 241.731 385.002 241.731Z" fill="#CCD7EE"/>
<path d="M393.602 242.994C394.854 242.459 396.302 243.039 396.838 244.291C397.557 245.972 397.933 247.802 397.933 249.683C397.933 251.223 397.681 252.73 397.193 254.151C396.752 255.439 395.35 256.125 394.062 255.683C392.796 255.248 392.111 253.884 392.51 252.614L392.531 252.552C392.842 251.644 393.004 250.677 393.004 249.683C393.004 248.52 392.783 247.397 392.362 246.364L392.306 246.23C391.77 244.978 392.351 243.53 393.602 242.994Z" fill="#597EF7"/>
<path fill-rule="evenodd" clip-rule="evenodd" d="M162.954 373.746C162.954 378.133 159.398 381.69 155.011 381.69C150.624 381.69 147.067 378.133 147.067 373.746C147.067 369.36 150.624 365.803 155.011 365.803C159.398 365.803 162.954 369.36 162.954 373.746Z" fill="#253368"/>
<path fill-rule="evenodd" clip-rule="evenodd" d="M153.521 445.235H156.595V376.119H153.521V445.235Z" fill="#253368"/>
<path fill-rule="evenodd" clip-rule="evenodd" d="M153.521 445.235L117.71 451.2L115.399 449.531L153.521 438.303V445.235Z" fill="#253368"/>
<path fill-rule="evenodd" clip-rule="evenodd" d="M156.596 445.235L192.407 451.2L194.718 449.531L156.596 438.303V445.235Z" fill="#253368"/>
<path fill-rule="evenodd" clip-rule="evenodd" d="M152.619 453.254H157.497V443.24H152.619V453.254Z" fill="#253368"/>
<path fill-rule="evenodd" clip-rule="evenodd" d="M121.065 453.388C121.065 455.675 119.211 457.528 116.924 457.528C114.638 457.528 112.784 455.675 112.784 453.388C112.784 451.101 114.638 449.247 116.924 449.247C119.211 449.247 121.065 451.101 121.065 453.388Z" fill="#253368"/>
<path fill-rule="evenodd" clip-rule="evenodd" d="M159.199 453.388C159.199 455.675 157.345 457.528 155.058 457.528C152.771 457.528 150.917 455.675 150.917 453.388C150.917 451.101 152.771 449.247 155.058 449.247C157.345 449.247 159.199 451.101 159.199 453.388Z" fill="#253368"/>
<path fill-rule="evenodd" clip-rule="evenodd" d="M197.695 453.388C197.695 455.675 195.841 457.528 193.554 457.528C191.267 457.528 189.414 455.675 189.414 453.388C189.414 451.101 191.267 449.247 193.554 449.247C195.841 449.247 197.695 451.101 197.695 453.388Z" fill="#253368"/>
<path fill-rule="evenodd" clip-rule="evenodd" d="M204.801 372.288H105.22C105.22 362.501 113.154 354.567 122.942 354.567H187.08C196.867 354.567 204.801 362.501 204.801 372.288Z" fill="#A3B5D6"/>
<path fill-rule="evenodd" clip-rule="evenodd" d="M186.977 306.108C186.977 306.108 186.228 318.574 174.839 317.693C163.227 316.796 164.475 304.213 164.475 304.213C164.475 304.213 163.911 296.392 164.72 285.874C165.353 277.656 166.326 266.922 167.232 261.702C168.208 256.069 173.39 252.351 178.724 252.764C186.832 253.39 189.581 259.932 189.402 265.618C189.227 271.147 188.966 280.244 188.638 286.334C188.009 298.043 186.977 306.108 186.977 306.108Z" fill="#ADC6FF"/>
<path fill-rule="evenodd" clip-rule="evenodd" d="M212.401 321.313C213.772 326.439 225.17 324.698 225.17 324.698L230.757 329.254C231.642 329.867 232.022 329.269 232.504 329.379C233.801 329.675 234.112 328.31 234.112 328.31C234.608 328.199 235.25 328.706 235.726 327.515C235.726 327.515 236.65 327.657 236.966 326.567C237.084 326.162 235.3 320.672 234.236 317.461C233.767 316.05 232.549 315.025 231.082 314.804L217.44 312.747C217.44 312.747 210.558 314.417 212.401 321.313Z" fill="#C99382"/>
<path d="M224.332 321.12C224.177 321.054 223.996 321.126 223.93 321.282C223.871 321.421 223.921 321.579 224.043 321.659L224.092 321.686L228.121 323.408L232.144 328.957C232.233 329.079 232.394 329.116 232.525 329.053L232.573 329.025C232.695 328.936 232.732 328.774 232.669 328.643L232.641 328.595L228.568 322.979C228.546 322.949 228.519 322.923 228.489 322.903L228.44 322.877L224.332 321.12Z" fill="#9B6160"/>
<path d="M227.072 319.427C226.925 319.344 226.737 319.396 226.654 319.544C226.58 319.676 226.613 319.838 226.725 319.931L226.771 319.963L230.47 322.05L233.749 327.794C233.824 327.925 233.98 327.98 234.117 327.932L234.168 327.909C234.298 327.834 234.353 327.677 234.305 327.54L234.282 327.489L230.961 321.672C230.942 321.64 230.918 321.611 230.89 321.588L230.845 321.557L227.072 319.427Z" fill="#9B6160"/>
<path d="M229.726 317.862C229.594 317.757 229.401 317.779 229.295 317.913C229.202 318.031 229.209 318.197 229.306 318.306L229.346 318.344L231.837 320.318L234.828 326.482C234.894 326.618 235.047 326.683 235.187 326.644L235.238 326.624C235.374 326.558 235.439 326.406 235.4 326.265L235.38 326.214L232.357 319.986C232.344 319.958 232.326 319.933 232.306 319.91L232.272 319.879L229.726 317.862Z" fill="#9B6160"/>
<path fill-rule="evenodd" clip-rule="evenodd" d="M176.225 297.408C176.225 297.408 164.747 294.99 162.417 304.531C160.014 314.371 170.916 317.2 170.916 317.2C170.916 317.2 178.637 319.003 188.144 321.266C193.947 322.647 200.387 324.044 205.207 324.386C210.426 324.757 211.607 322.084 212.772 317.313C214.156 311.647 214.152 309.165 209.32 307.223C204.714 305.372 198.238 303.705 193.278 302.185C183.82 299.288 176.225 297.408 176.225 297.408Z" fill="#ADC6FF"/>
<path fill-rule="evenodd" clip-rule="evenodd" d="M215.176 323.613L217.871 312.581L210.624 309.963L207.54 322.584L215.176 323.613Z" fill="#ADC6FF"/>
<path fill-rule="evenodd" clip-rule="evenodd" d="M223.117 343.799C200.321 337.868 176.696 331.968 157.795 327.707C157.795 327.707 143.531 326.927 142.777 339.968C142.039 352.749 157.448 356.546 157.448 356.546L219.35 366.183C219.35 366.183 229.449 367.641 231.137 356.418C232.675 346.18 223.117 343.799 223.117 343.799Z" fill="#597EF7"/>
<path fill-rule="evenodd" clip-rule="evenodd" d="M219.1 404.212C215.053 403.399 211.307 406.576 211.45 410.708C211.615 415.462 211.805 421.885 211.915 428.804C212.029 435.926 212.138 441.827 212.646 442.576C214.888 445.879 219.367 447.107 223.97 450.379C227.612 452.968 228.241 454.199 232.883 455.069C239.463 456.304 236.396 453.508 229.09 444.665C222.58 436.787 223.019 433.092 223.019 433.092L224.23 410.842C224.403 407.663 222.217 404.838 219.1 404.212Z" fill="#C99382"/>
<path fill-rule="evenodd" clip-rule="evenodd" d="M228.429 442.573C233.183 447.866 238.631 452.049 238.499 454.562C238.366 457.076 236.388 459.345 228.203 456.436C222.602 454.445 224.205 453.241 218.859 449.757C216.189 448.017 215.216 448.204 212.754 446.179C211.343 444.362 211.978 435.535 211.978 435.535L221.347 445.819C221.347 445.819 218.912 441.029 220.914 439.991C222.915 438.952 224.758 438.246 225.939 439.098C227.119 439.949 228.429 442.573 228.429 442.573Z" fill="#7D4556"/>
<path fill-rule="evenodd" clip-rule="evenodd" d="M233.067 356.592C229.995 393.955 226.497 430.513 226.497 430.513L210.706 430.502L208.239 355.248C208.239 355.248 209.623 346.613 221.821 345.041C233.041 343.595 233.067 356.592 233.067 356.592Z" fill="#597EF7"/>
<path fill-rule="evenodd" clip-rule="evenodd" d="M119.807 344.601C121.228 329.53 121.605 321.781 123.292 318.95C159.554 319.989 168.588 319.511 168.588 319.511C168.588 319.511 168.958 324.842 170.628 341.252C170.628 341.252 159.464 361.63 145.057 361.63C132.068 361.63 119.807 344.601 119.807 344.601Z" fill="#597EF7"/>
<path fill-rule="evenodd" clip-rule="evenodd" d="M123.292 318.95L123.977 312.115L168.381 312.649L168.588 319.495C168.588 319.495 145.088 320.401 123.292 318.95Z" fill="#597EF7"/>
<path fill-rule="evenodd" clip-rule="evenodd" d="M143.254 228.467C143.254 228.467 137.087 224.681 139.556 217.956C137.055 211.944 140.571 208.488 140.571 208.488C140.571 208.488 141.08 200.789 146.199 200.611C149.804 192.869 158.62 196.42 158.62 196.42C158.62 196.42 164.594 192.015 172.481 198.859C178.474 199.377 178.647 196.392 180.472 198.566C182.297 200.739 182.916 205.645 180.246 207.429C184.59 209.568 180.189 216.432 180.189 216.432C180.189 216.432 181.436 220.596 176.162 223.415C170.887 226.235 168.45 235.863 159.786 238.494C151.449 241.025 142.9 237.962 143.254 228.467Z" fill="#7D4556"/>
<path fill-rule="evenodd" clip-rule="evenodd" d="M145.77 243.084L148.276 229.909L165.741 233.009L165.311 244.633C165.12 249.822 160.694 253.832 155.519 253.504C155.421 253.497 155.323 253.491 155.223 253.485C149.932 253.151 145.125 248.355 145.77 243.084Z" fill="#C99382"/>
<path fill-rule="evenodd" clip-rule="evenodd" d="M152.983 209.794C152.983 209.794 153.929 214.522 150.279 215.601C150.798 221.687 148.18 221.111 148.18 221.111C148.18 221.111 144.067 215.653 141.098 220.305C138.278 224.724 142.916 231.388 147.336 230.447C154.468 242.332 169.124 243.173 174.111 235.551C177.141 230.92 176.183 224.092 176.611 220.899C177.665 213.053 176.258 210.647 176.258 210.647C176.258 210.647 173.245 211.235 170.008 208.712C166.438 211.265 161.437 208.59 161.437 208.59C161.437 208.59 157.976 212.859 152.983 209.794Z" fill="#C99382"/>
<path d="M144.831 221.275C143.822 221.059 143.127 221.31 142.745 221.877C142.573 222.131 142.502 222.382 142.487 222.567C142.471 222.751 142.607 222.913 142.791 222.929C142.974 222.945 143.136 222.809 143.152 222.625C143.159 222.543 143.201 222.396 143.298 222.251C143.522 221.919 143.94 221.768 144.691 221.929C145.4 222.081 145.987 222.629 146.326 223.361C146.468 223.667 146.55 223.977 146.559 224.222C146.566 224.4 146.535 224.492 146.528 224.495C145.84 224.873 145.302 225.419 145.123 226.023C144.893 226.797 145.265 227.553 146.239 228.183C146.394 228.283 146.601 228.239 146.701 228.083C146.801 227.928 146.756 227.721 146.601 227.621C145.856 227.14 145.627 226.673 145.763 226.214C145.884 225.807 146.301 225.383 146.849 225.082C147.959 224.474 146.656 221.665 144.831 221.275Z" fill="#9B6160"/>
<path d="M145.815 223.734C145.506 223.696 145.187 223.685 144.882 223.716C144.055 223.799 143.498 224.184 143.501 224.959C143.502 225.143 143.652 225.292 143.836 225.292C144.021 225.291 144.17 225.14 144.169 224.956C144.168 224.61 144.421 224.434 144.949 224.381C145.198 224.356 145.471 224.366 145.735 224.398L145.856 224.414C145.889 224.419 145.915 224.424 145.933 224.427C146.114 224.462 146.289 224.344 146.324 224.163C146.359 223.981 146.241 223.806 146.06 223.77L145.935 223.75C145.899 223.745 145.859 223.739 145.815 223.734Z" fill="#9B6160"/>
<path fill-rule="evenodd" clip-rule="evenodd" d="M164.563 220.812C164.285 224.024 161.463 226.402 158.256 226.125C155.049 225.848 152.675 223.019 152.952 219.808C153.228 216.596 156.052 214.217 159.258 214.494C162.466 214.772 164.84 217.601 164.563 220.812Z" fill="white"/>
<path d="M159.294 214.085C162.727 214.382 165.269 217.41 164.972 220.848C164.675 224.286 161.653 226.831 158.22 226.535C154.788 226.238 152.246 223.21 152.543 219.772C152.834 216.391 155.763 213.872 159.125 214.073L159.294 214.085ZM153.361 219.843C153.104 222.829 155.311 225.458 158.291 225.716C161.272 225.973 163.896 223.762 164.154 220.777C164.411 217.791 162.204 215.162 159.223 214.904C156.243 214.646 153.618 216.858 153.361 219.843Z" fill="#7D4556"/>
<path fill-rule="evenodd" clip-rule="evenodd" d="M178.69 221.486C178.413 224.698 175.59 227.076 172.383 226.8C169.177 226.522 166.801 223.693 167.079 220.482C167.355 217.27 170.18 214.891 173.386 215.168C176.593 215.446 178.967 218.275 178.69 221.486Z" fill="white"/>
<path d="M173.421 214.759C176.854 215.056 179.396 218.083 179.1 221.522C178.802 224.96 175.781 227.505 172.348 227.209C168.915 226.912 166.373 223.884 166.67 220.446C166.961 217.065 169.891 214.545 173.253 214.746L173.421 214.759ZM167.488 220.517C167.23 223.502 169.438 226.132 172.418 226.39C175.399 226.647 178.023 224.436 178.281 221.451C178.539 218.465 176.332 215.836 173.351 215.578C170.37 215.32 167.745 217.532 167.488 220.517Z" fill="#7D4556"/>
<path d="M165.996 219.859C165.836 219.95 165.78 220.154 165.871 220.315L165.955 220.467C166.023 220.592 166.099 220.735 166.181 220.892C166.415 221.343 166.65 221.823 166.868 222.311C167.065 222.751 167.239 223.178 167.385 223.581C167.875 224.94 167.988 225.924 167.68 226.279C167.335 226.678 166.884 226.913 166.343 227.011C165.793 227.11 165.191 227.061 164.607 226.918C164.387 226.864 164.224 226.81 164.138 226.777C163.966 226.71 163.772 226.795 163.705 226.967C163.638 227.139 163.723 227.333 163.895 227.4L164.009 227.442C164.12 227.479 164.269 227.524 164.448 227.567C165.116 227.731 165.806 227.787 166.462 227.669C167.145 227.546 167.733 227.239 168.185 226.718C168.72 226.1 168.588 224.947 168.013 223.354C167.861 222.933 167.681 222.492 167.478 222.038C167.253 221.536 167.013 221.045 166.773 220.583L166.614 220.281L166.452 219.985C166.361 219.824 166.157 219.768 165.996 219.859Z" fill="#9B6160"/>
<path fill-rule="evenodd" clip-rule="evenodd" d="M159.84 228.896C159.84 228.896 165.159 229.975 169.049 229.693C169.049 229.693 167.643 233.443 163.845 232.65C160.473 231.945 159.84 228.896 159.84 228.896Z" fill="white"/>
<path d="M159.91 228.552L160.608 228.682C161.163 228.78 161.775 228.878 162.425 228.97C163.816 229.166 165.186 229.305 166.466 229.361C167.401 229.402 168.259 229.398 169.024 229.342C169.279 229.324 169.468 229.576 169.378 229.816L169.333 229.928C169.287 230.034 169.22 230.174 169.131 230.339C168.926 230.72 168.67 231.101 168.361 231.457C167.231 232.757 165.704 233.397 163.774 232.994C162.385 232.704 161.324 232.02 160.555 231.066C160.189 230.611 159.913 230.125 159.715 229.638C159.595 229.343 159.526 229.109 159.497 228.968C159.446 228.721 159.663 228.502 159.91 228.552ZM160.486 229.374L160.357 229.35L160.365 229.372C160.538 229.799 160.781 230.226 161.101 230.624C161.772 231.457 162.693 232.05 163.917 232.306C165.578 232.653 166.858 232.116 167.831 230.996L167.99 230.804C168.143 230.61 168.279 230.41 168.399 230.208L168.474 230.076L168.462 230.077C167.833 230.1 167.155 230.095 166.435 230.063C165.131 230.006 163.738 229.865 162.327 229.666C161.668 229.573 161.049 229.474 160.486 229.374Z" fill="#7D4556"/>
<path d="M169.281 213.248C169.114 213.151 168.899 213.208 168.802 213.376C168.704 213.544 168.761 213.759 168.929 213.856C170.73 214.903 173.03 215.327 175.439 214.882C175.629 214.847 175.755 214.664 175.72 214.473C175.685 214.282 175.502 214.156 175.312 214.191C173.069 214.605 170.94 214.212 169.281 213.248Z" fill="#7D4556"/>
<path d="M166.339 218.597C165.678 218.511 164.981 218.512 164.326 218.564L164.073 218.588L163.963 218.601L164.071 219.416L164.305 219.392C164.332 219.389 164.361 219.387 164.391 219.384C164.994 219.336 165.637 219.335 166.233 219.413C166.589 219.459 166.907 219.532 167.177 219.632L167.308 219.685L167.634 218.93C167.26 218.768 166.825 218.66 166.339 218.597Z" fill="#7D4556"/>
<path d="M173.002 219.589C172.003 219.502 171.272 219.938 170.807 220.691C170.563 221.088 170.439 221.48 170.394 221.758C170.357 221.982 170.509 222.194 170.733 222.23C170.956 222.267 171.168 222.115 171.204 221.891L171.218 221.825C171.228 221.782 171.243 221.727 171.264 221.661C171.322 221.477 171.402 221.292 171.506 221.123C171.818 220.617 172.266 220.351 172.932 220.408C173.539 220.461 173.889 220.769 174.077 221.289C174.178 221.568 174.217 221.865 174.218 222.122L174.214 222.274C174.194 222.501 174.361 222.7 174.587 222.72C174.794 222.738 174.979 222.598 175.023 222.401L175.033 222.327C175.033 222.319 175.034 222.308 175.035 222.286C175.053 221.905 175.01 221.454 174.849 221.01C174.559 220.206 173.953 219.671 173.002 219.589Z" fill="#7D4556"/>
<path d="M159.036 218.381C158.036 218.294 157.305 218.729 156.841 219.483C156.596 219.88 156.472 220.272 156.427 220.55C156.39 220.774 156.542 220.985 156.765 221.022C156.969 221.056 157.162 220.933 157.223 220.742L157.263 220.57C157.272 220.536 157.283 220.497 157.297 220.453C157.355 220.269 157.435 220.084 157.539 219.915C157.851 219.409 158.299 219.142 158.965 219.2C159.573 219.252 159.923 219.561 160.111 220.081C160.211 220.36 160.251 220.657 160.251 220.915L160.247 221.066C160.228 221.293 160.395 221.492 160.621 221.511C160.828 221.529 161.013 221.39 161.057 221.192L161.068 221.104L161.069 221.078C161.087 220.697 161.043 220.245 160.883 219.801C160.592 218.998 159.986 218.462 159.036 218.381Z" fill="#7D4556"/>
<path d="M152.952 219.808L147.215 219.311" stroke="#7D4556" stroke-width="1.383"/>
<path d="M163.013 212.676C162.94 212.496 162.736 212.409 162.556 212.482C161.913 212.742 161.152 212.924 160.296 213.037C158.998 213.208 157.608 213.208 156.305 213.106L156.035 213.083L155.618 213.038C155.426 213.013 155.25 213.149 155.224 213.341C155.199 213.534 155.335 213.71 155.527 213.735L155.722 213.758L155.97 213.783C156.058 213.791 156.152 213.799 156.25 213.807C157.597 213.913 159.034 213.912 160.387 213.734C161.298 213.614 162.116 213.418 162.819 213.134C162.999 213.061 163.086 212.856 163.013 212.676Z" fill="#7D4556"/>
<path d="M163.558 236.277C163.374 236.269 163.218 236.412 163.209 236.596L163.198 236.77C163.191 236.866 163.181 236.984 163.166 237.119C163.124 237.514 163.063 237.908 162.979 238.274C162.804 239.035 162.554 239.556 162.278 239.707C162.116 239.796 162.057 239.999 162.146 240.161C162.234 240.323 162.437 240.383 162.599 240.294C163.099 240.02 163.415 239.362 163.63 238.424C163.72 238.029 163.786 237.61 163.83 237.19L163.857 236.912L163.877 236.627C163.885 236.442 163.742 236.286 163.558 236.277Z" fill="#9B6160"/>
<path d="M164.723 237.424C164.538 237.423 164.388 237.571 164.386 237.756L164.378 238.026C164.375 238.085 164.372 238.15 164.368 238.22C164.348 238.57 164.315 238.92 164.266 239.244C164.217 239.566 164.155 239.843 164.08 240.061C164.02 240.236 164.113 240.426 164.287 240.487C164.461 240.547 164.651 240.454 164.711 240.279C164.801 240.017 164.872 239.703 164.926 239.345C164.979 238.998 165.014 238.628 165.035 238.258L165.049 237.965C165.052 237.881 165.053 237.813 165.054 237.762C165.055 237.577 164.907 237.426 164.723 237.424Z" fill="#9B6160"/>
<path d="M162.015 237.661C161.839 237.607 161.652 237.706 161.598 237.883L161.57 237.97C161.553 238.023 161.529 238.09 161.501 238.167C161.422 238.383 161.333 238.599 161.236 238.799C161.056 239.169 160.871 239.434 160.724 239.536L160.681 239.561C160.515 239.642 160.446 239.842 160.527 240.008C160.608 240.174 160.808 240.243 160.974 240.162C161.303 240.001 161.577 239.627 161.837 239.091C161.944 238.869 162.042 238.633 162.128 238.397L162.205 238.179C162.218 238.139 162.229 238.105 162.237 238.079C162.291 237.902 162.192 237.715 162.015 237.661Z" fill="#9B6160"/>
<path d="M165.737 237.172C165.573 237.196 165.454 237.336 165.451 237.497L165.455 237.551L165.746 239.551C165.773 239.734 165.942 239.86 166.125 239.834C166.289 239.81 166.408 239.67 166.411 239.509L166.407 239.455L166.116 237.454C166.092 237.29 165.952 237.171 165.791 237.168L165.737 237.172Z" fill="#9B6160"/>
<path d="M154.273 237.024C154.118 236.922 153.911 236.965 153.81 237.12C153.709 237.274 153.752 237.482 153.907 237.583C154.426 237.924 154.962 238.234 155.513 238.515C158.866 240.221 162.368 240.705 165.376 240.499L165.656 240.478C165.912 240.457 166.093 240.435 166.191 240.42C166.374 240.392 166.499 240.222 166.472 240.039C166.444 239.857 166.274 239.731 166.092 239.759L165.939 239.778C165.873 239.786 165.793 239.794 165.699 239.803L165.601 239.811C162.644 240.058 159.147 239.614 155.815 237.918C155.286 237.649 154.772 237.351 154.273 237.024Z" fill="#9B6160"/>
<path d="M161.127 226.562C161.075 226.384 160.889 226.283 160.712 226.335L160.558 226.384C160.439 226.423 160.307 226.469 160.165 226.523C159.759 226.675 159.353 226.853 158.972 227.057C157.697 227.739 156.965 228.548 157.143 229.525C157.176 229.707 157.349 229.828 157.531 229.795C157.712 229.761 157.833 229.587 157.8 229.406C157.692 228.815 158.245 228.205 159.287 227.647C159.639 227.459 160.019 227.292 160.4 227.149L160.582 227.083C160.722 227.033 160.831 226.998 160.901 226.977C161.078 226.925 161.179 226.739 161.127 226.562Z" fill="#9B6160"/>
<path fill-rule="evenodd" clip-rule="evenodd" d="M144.857 243.708L142.992 247.176C142.992 247.176 130.052 248.731 123.734 252.543C118.021 255.99 118.74 292.379 119.62 304.626C116.542 319.004 128.027 317.845 128.027 317.845L169.014 321.231C169.014 321.231 175.014 317.819 172.031 307.686C172.796 299.447 186.153 259.931 180.993 254.763C176.981 250.744 167.296 249.958 167.296 249.958L166.647 245.93C166.647 245.93 160.431 245.219 144.857 243.708Z" fill="#ADC6FF"/>
<path d="M179.021 270.497C178.833 270.479 178.666 270.617 178.648 270.805C178.295 274.434 177.607 278.768 176.639 283.656C176.094 286.41 175.468 289.297 174.777 292.275C173.961 295.79 173.093 299.272 172.22 302.595L171.706 304.53C171.56 305.075 171.419 305.594 171.284 306.088L170.932 307.363L170.635 308.42C170.583 308.602 170.687 308.791 170.869 308.843C171.05 308.896 171.239 308.791 171.291 308.609L171.648 307.337L171.943 306.269C172.146 305.527 172.362 304.726 172.589 303.872C173.562 300.215 174.534 296.343 175.442 292.43C176.135 289.445 176.762 286.551 177.309 283.789L177.529 282.666C178.386 278.215 179 274.245 179.327 270.871C179.346 270.683 179.208 270.516 179.021 270.497Z" fill="#597EF7"/>
<path d="M146.181 249.091C145.999 249.043 145.812 249.152 145.764 249.335C145.716 249.517 145.825 249.704 146.007 249.753C152.405 251.441 158.687 251.873 163.976 251.586L164.415 251.561C164.685 251.544 164.93 251.526 165.147 251.508L165.581 251.468C165.596 251.467 165.609 251.465 165.62 251.464C165.808 251.443 165.942 251.273 165.921 251.086C165.9 250.898 165.731 250.763 165.543 250.784L165.245 250.813L164.751 250.853C164.631 250.861 164.505 250.87 164.372 250.878C159.061 251.209 152.678 250.805 146.181 249.091Z" fill="#597EF7"/>
<path fill-rule="evenodd" clip-rule="evenodd" d="M186.789 411.517C182.391 410.789 178.464 414.356 178.77 418.811C179.121 423.936 179.561 430.862 179.934 438.327C180.317 446.01 180.65 452.376 181.228 453.166C183.767 456.648 188.648 457.81 193.736 461.173C197.762 463.834 198.486 465.139 203.529 465.908C210.677 466.999 207.263 464.094 199.053 454.816C191.74 446.551 192.076 442.547 192.076 442.547L192.569 418.486C192.638 415.047 190.178 412.078 186.789 411.517Z" fill="#C99382"/>
<path fill-rule="evenodd" clip-rule="evenodd" d="M198.264 452.583C203.589 458.121 209.623 462.436 209.571 465.154C209.522 467.872 207.469 470.394 198.528 467.555C192.408 465.611 194.094 464.253 188.196 460.688C185.251 458.908 184.207 459.146 181.476 457.05C179.886 455.141 180.248 445.59 180.248 445.59L190.738 456.346C190.738 456.346 187.933 451.265 190.056 450.071C192.178 448.877 194.142 448.046 195.448 448.922C196.754 449.797 198.264 452.583 198.264 452.583Z" fill="#7D4556"/>
<path fill-rule="evenodd" clip-rule="evenodd" d="M199.671 359.075C197.756 399.519 195.35 439.11 195.35 439.11L178.304 439.694L172.822 358.556C172.822 358.556 173.83 346.432 187.1 347.029C199.074 347.567 199.671 359.075 199.671 359.075Z" fill="#597EF7"/>
<path fill-rule="evenodd" clip-rule="evenodd" d="M192.517 345.829C174.087 338.984 150.552 334.007 133.503 330.535C133.503 330.535 120.712 332.244 119.847 344.834C119 357.175 132.897 360.316 132.897 360.316L188.795 367.524C188.795 367.524 197.917 368.589 199.6 357.718C201.137 347.802 192.517 345.829 192.517 345.829Z" fill="#597EF7"/>
<path d="M122.816 320.823C122.631 320.823 122.482 320.973 122.482 321.157C122.482 321.324 122.603 321.462 122.762 321.487L122.816 321.492H168.289C168.473 321.492 168.623 321.342 168.623 321.157C168.623 320.991 168.501 320.853 168.343 320.827L168.289 320.823H122.816Z" fill="#253368"/>
<path d="M123.318 326.014C123.133 326.014 122.984 326.163 122.984 326.348C122.984 326.514 123.105 326.652 123.264 326.678L123.318 326.683H168.957C169.141 326.683 169.291 326.533 169.291 326.348C169.291 326.182 169.17 326.044 169.011 326.018L168.957 326.014H123.318Z" fill="#253368"/>
<path d="M154.647 320.739C154.481 320.747 154.349 320.875 154.331 321.035L154.329 321.089L154.58 326.364C154.589 326.549 154.746 326.691 154.93 326.683C155.096 326.675 155.227 326.547 155.246 326.387L155.248 326.333L154.996 321.058C154.988 320.873 154.831 320.731 154.647 320.739Z" fill="#253368"/>
<path fill-rule="evenodd" clip-rule="evenodd" d="M195.124 345.663L143.746 334.502L196.003 321.843L238.077 335.345L195.124 345.663Z" fill="#CCD7EE"/>
<path fill-rule="evenodd" clip-rule="evenodd" d="M197.283 342.154L159.969 334.049L197.038 324.733L228.479 334.661L197.283 342.154Z" fill="#4E5C93"/>
<path fill-rule="evenodd" clip-rule="evenodd" d="M143.626 337.184L143.734 334.52L196.193 345.483L195.137 348.275L143.626 337.184Z" fill="#253368"/>
<path d="M203.813 327.363L173.568 336.563C173.45 336.599 173.383 336.723 173.419 336.841C173.45 336.944 173.55 337.008 173.653 336.998L173.697 336.99L203.943 327.79C204.06 327.754 204.127 327.629 204.091 327.511C204.06 327.408 203.961 327.344 203.857 327.354L203.813 327.363Z" fill="#CCD7EE"/>
<path d="M199.975 325.558L166.19 335.218C166.072 335.252 166.004 335.376 166.037 335.494C166.067 335.598 166.165 335.663 166.268 335.655L166.313 335.647L200.098 325.987C200.216 325.953 200.284 325.83 200.251 325.711C200.221 325.608 200.123 325.542 200.02 325.55L199.975 325.558Z" fill="#CCD7EE"/>
<path d="M204.106 330.09L178.684 338.211C178.566 338.248 178.502 338.374 178.539 338.491C178.572 338.594 178.672 338.656 178.775 338.645L178.819 338.636L204.241 330.515C204.358 330.477 204.423 330.352 204.385 330.235C204.353 330.132 204.253 330.07 204.15 330.081L204.106 330.09Z" fill="#CCD7EE"/>
<path d="M210.885 331.158L185.463 339.279C185.346 339.316 185.281 339.442 185.318 339.559C185.351 339.662 185.451 339.724 185.554 339.713L185.598 339.704L211.02 331.583C211.137 331.546 211.202 331.42 211.165 331.303C211.132 331.2 211.032 331.138 210.929 331.149L210.885 331.158Z" fill="#CCD7EE"/>
<path d="M217.12 332.589L191.698 340.709C191.581 340.747 191.516 340.872 191.553 340.989C191.586 341.092 191.686 341.155 191.789 341.143L191.833 341.134L217.255 333.013C217.372 332.976 217.437 332.851 217.4 332.733C217.367 332.631 217.267 332.568 217.164 332.579L217.12 332.589Z" fill="#CCD7EE"/>
<path d="M166.219 332.763C166.098 332.741 165.982 332.822 165.96 332.943C165.941 333.049 166 333.151 166.096 333.19L166.139 333.202L198.134 339.011C198.255 339.033 198.371 338.953 198.393 338.832C198.412 338.726 198.353 338.623 198.257 338.585L198.214 338.572L166.219 332.763Z" fill="#CCD7EE"/>
<path d="M173.508 330.644C173.387 330.623 173.271 330.703 173.25 330.824C173.23 330.93 173.289 331.032 173.386 331.071L173.429 331.083L205.425 336.893C205.546 336.915 205.661 336.834 205.683 336.713C205.703 336.607 205.644 336.505 205.547 336.466L205.504 336.454L173.508 330.644Z" fill="#CCD7EE"/>
<path d="M182.463 329.463C182.342 329.441 182.226 329.522 182.205 329.643C182.185 329.749 182.244 329.851 182.341 329.889L182.384 329.902L214.379 335.711C214.5 335.733 214.616 335.653 214.638 335.532C214.657 335.426 214.598 335.323 214.501 335.285L214.458 335.272L182.463 329.463Z" fill="#CCD7EE"/>
<path d="M188.707 325.337C188.586 325.315 188.47 325.395 188.448 325.516C188.429 325.622 188.488 325.724 188.584 325.763L188.628 325.776L220.623 331.585C220.744 331.607 220.86 331.526 220.882 331.405C220.901 331.299 220.842 331.197 220.746 331.158L220.703 331.146L188.707 325.337Z" fill="#CCD7EE"/>
<path fill-rule="evenodd" clip-rule="evenodd" d="M195.178 348.279L197.497 348.614L238.178 338.303L258.16 271.537L214.621 277.703L195.178 348.279Z" fill="#253368"/>
<path fill-rule="evenodd" clip-rule="evenodd" d="M197.579 348.622L240.48 337.768C240.871 337.67 241.183 337.371 241.3 336.983L260.575 272.824C260.818 272.018 260.143 271.232 259.311 271.351L218.007 277.258C217.556 277.323 217.184 277.651 217.062 278.092L197.579 348.622Z" fill="#4E5C93"/>
<path fill-rule="evenodd" clip-rule="evenodd" d="M135.437 304.99C135.437 304.99 134.034 317.399 122.707 315.92C111.157 314.412 113.066 301.911 113.066 301.911C113.066 301.911 112.913 294.072 114.275 283.611C115.339 275.437 116.875 264.77 118.053 259.604C119.325 254.03 124.695 250.592 130.001 251.285C138.063 252.338 140.466 259.016 139.987 264.685C139.522 270.197 138.782 279.268 138.136 285.332C136.892 296.992 135.437 304.99 135.437 304.99Z" fill="#ADC6FF"/>
<path fill-rule="evenodd" clip-rule="evenodd" d="M168.2 320.937C169.691 326.516 182.097 324.622 182.097 324.622L188.177 329.58C189.14 330.247 189.554 329.597 190.078 329.716C191.49 330.039 191.828 328.553 191.828 328.553C192.369 328.431 193.068 328.984 193.585 327.688C193.585 327.688 194.591 327.843 194.934 326.656C195.062 326.214 193.121 320.24 191.962 316.745C191.453 315.21 190.128 314.095 188.531 313.854L173.684 311.615C173.684 311.615 166.193 313.431 168.2 320.937Z" fill="#C99382"/>
<path d="M181.185 320.727C181.015 320.654 180.819 320.733 180.747 320.903C180.681 321.056 180.739 321.231 180.875 321.317L180.923 321.342L185.308 323.218L189.686 329.256C189.783 329.389 189.958 329.43 190.101 329.361L190.153 329.33C190.285 329.234 190.326 329.058 190.258 328.915L190.227 328.863L185.793 322.751C185.77 322.718 185.74 322.69 185.707 322.668L185.654 322.64L181.185 320.727Z" fill="#9B6160"/>
<path d="M184.167 318.886C184.006 318.795 183.803 318.852 183.712 319.013C183.632 319.156 183.668 319.333 183.79 319.435L183.839 319.469L187.865 321.74L191.433 327.991C191.515 328.134 191.685 328.194 191.834 328.141L191.889 328.116C192.031 328.034 192.091 327.864 192.038 327.714L192.013 327.659L188.399 321.328C188.379 321.293 188.353 321.262 188.322 321.237L188.273 321.203L184.167 318.886Z" fill="#9B6160"/>
<path d="M187.055 317.182C186.91 317.067 186.7 317.092 186.586 317.237C186.484 317.365 186.492 317.546 186.597 317.665L186.641 317.707L189.352 319.853L192.608 326.563C192.681 326.713 192.85 326.784 193.004 326.737L193.055 326.718C193.204 326.645 193.275 326.476 193.229 326.321L193.209 326.271L189.919 319.492C189.904 319.462 189.885 319.435 189.863 319.41L189.826 319.376L187.055 317.182Z" fill="#9B6160"/>
<path fill-rule="evenodd" clip-rule="evenodd" d="M128.827 294.92C128.827 294.92 116.337 292.289 113.799 302.673C111.183 313.381 123.049 316.462 123.049 316.462C123.049 316.462 131.452 318.423 141.798 320.885C148.115 322.389 155.123 323.909 160.369 324.282C166.05 324.686 167.334 321.776 168.602 316.584C170.109 310.419 170.105 307.716 164.846 305.603C159.833 303.588 152.785 301.773 147.387 300.119C137.094 296.966 128.827 294.92 128.827 294.92Z" fill="#ADC6FF"/>
<path fill-rule="evenodd" clip-rule="evenodd" d="M171.22 323.441L174.153 311.434L166.265 308.585L162.909 322.32L171.22 323.441Z" fill="#ADC6FF"/>
<path d="M139.905 271.503C139.717 271.483 139.549 271.619 139.529 271.807L139.428 272.674C139.199 274.551 138.749 277.709 138.102 282.05L135.847 296.957C135.823 297.128 135.929 297.289 136.095 297.335C139.158 298.182 142.287 299.084 145.435 300.036L147.588 300.688L154.717 302.774L155.878 303.118C159.462 304.189 162.036 305.043 164.218 305.92C166.783 306.951 168.03 308.103 168.45 309.759C168.473 309.851 168.533 309.928 168.614 309.973L168.665 309.997L173.247 311.651L170.461 323.06L165.483 322.39C165.398 322.378 165.314 322.399 165.244 322.446L165.196 322.487C164.044 323.641 162.398 324.119 159.892 323.941C155.472 323.626 149.793 322.545 141.846 320.664L135.247 319.098L122.626 316.129C122.442 316.086 122.259 316.2 122.216 316.384C122.173 316.568 122.287 316.752 122.471 316.795L127.965 318.083C130.664 318.718 133.462 319.378 136.306 320.052L142.157 321.441C149.894 323.262 155.464 324.312 159.844 324.623C162.364 324.803 164.138 324.344 165.427 323.207L165.556 323.09L170.673 323.78C170.827 323.8 170.973 323.715 171.032 323.576L171.05 323.522L173.983 311.515C174.02 311.364 173.951 311.21 173.819 311.136L173.767 311.112L169.063 309.413L169.023 309.28C168.487 307.598 167.15 306.401 164.699 305.377L164.473 305.285L164.01 305.102C162.056 304.338 159.782 303.582 156.784 302.676L154.179 301.906C152.69 301.473 149.313 300.49 147.625 299.985L146.986 299.793C143.827 298.824 140.681 297.906 137.595 297.042L136.567 296.756L138.729 282.477C139.519 277.187 140.024 273.603 140.208 271.879C140.228 271.692 140.092 271.523 139.905 271.503Z" fill="#597EF7"/>
<path fill-rule="evenodd" clip-rule="evenodd" d="M303.607 346.747C319.038 339.449 328.234 358.59 320.474 369.248C311.004 382.254 306.153 397.219 303.451 401.728C301.173 405.531 294.93 414.804 287.413 410.53C280.495 406.597 284.266 391.159 284.266 391.159C284.266 391.159 284.571 355.751 303.607 346.747Z" fill="#5B8C00"/>
<path fill-rule="evenodd" clip-rule="evenodd" d="M257.195 407.558C251.949 400.48 250.034 390.324 255.889 387.719C261.503 385.222 270.802 391.371 275.109 403.203C279.416 415.035 281.901 423.543 277.688 425.022C270.775 427.449 264.124 416.906 257.195 407.558Z" fill="#5B8C00"/>
<path fill-rule="evenodd" clip-rule="evenodd" d="M312.345 408.095C306.412 415.048 297.85 429.036 292.486 424.137C289.235 421.168 293.581 407.108 305.477 399.459C315.596 392.952 318.278 401.142 312.345 408.095Z" fill="#7CB305"/>
<path fill-rule="evenodd" clip-rule="evenodd" d="M255.569 359.844C257.825 358.326 260.663 357.979 263.253 358.809C266.868 359.967 272.353 363.414 277.782 373.308C284.869 386.226 288.559 400.387 287.829 409.357C287.353 415.224 280.125 417.753 276.082 413.475C274.226 411.511 272.261 408.483 270.339 403.889C262.603 385.403 255.37 373.818 254.508 372.655C252.206 369.551 250.561 363.213 255.569 359.844Z" fill="#7CB305"/>
<path fill-rule="evenodd" clip-rule="evenodd" d="M260.757 367.218C260.833 368.131 260.155 368.932 259.243 369.009C258.33 369.086 257.528 368.408 257.451 367.495C257.375 366.582 258.053 365.78 258.965 365.704C259.878 365.627 260.68 366.305 260.757 367.218Z" fill="white"/>
<path fill-rule="evenodd" clip-rule="evenodd" d="M274.843 374.299C274.92 375.211 274.242 376.013 273.329 376.09C272.417 376.166 271.615 375.489 271.538 374.576C271.461 373.663 272.139 372.861 273.052 372.785C273.965 372.708 274.767 373.386 274.843 374.299Z" fill="white"/>
<path fill-rule="evenodd" clip-rule="evenodd" d="M272.482 393.152C272.57 394.197 271.794 395.116 270.749 395.203C269.703 395.291 268.785 394.515 268.697 393.469C268.609 392.424 269.386 391.506 270.431 391.418C271.476 391.33 272.395 392.107 272.482 393.152Z" fill="white"/>
<path fill-rule="evenodd" clip-rule="evenodd" d="M315.75 364.976C315.75 366.46 314.548 367.663 313.064 367.663C311.581 367.663 310.378 366.46 310.378 364.976C310.378 363.493 311.581 362.291 313.064 362.291C314.548 362.291 315.75 363.493 315.75 364.976Z" fill="white"/>
<path fill-rule="evenodd" clip-rule="evenodd" d="M294.127 373.179C294.127 374.662 292.925 375.865 291.441 375.865C289.958 375.865 288.755 374.662 288.755 373.179C288.755 371.695 289.958 370.493 291.441 370.493C292.925 370.493 294.127 371.695 294.127 373.179Z" fill="white"/>
<path fill-rule="evenodd" clip-rule="evenodd" d="M301.13 391.411C301.13 392.031 300.628 392.534 300.008 392.534C299.388 392.534 298.885 392.031 298.885 391.411C298.885 390.791 299.388 390.288 300.008 390.288C300.628 390.288 301.13 390.791 301.13 391.411Z" fill="white"/>
<path fill-rule="evenodd" clip-rule="evenodd" d="M309.218 405.769C309.218 406.685 308.476 407.427 307.56 407.427C306.644 407.427 305.901 406.685 305.901 405.769C305.901 404.853 306.644 404.11 307.56 404.11C308.476 404.11 309.218 404.853 309.218 405.769Z" fill="white"/>
<path d="M270.481 409.447C270.636 409.299 270.881 409.305 271.028 409.46L271.099 409.536L271.152 409.596C271.25 409.704 271.362 409.834 271.489 409.985C271.848 410.414 272.248 410.926 272.678 411.521C273.903 413.217 275.127 415.241 276.268 417.588C279.525 424.288 281.479 432.246 281.479 441.433C281.479 441.647 281.306 441.82 281.092 441.82C280.879 441.82 280.706 441.647 280.706 441.433C280.706 432.367 278.78 424.524 275.572 417.926C274.451 415.62 273.25 413.635 272.051 411.974C271.657 411.428 271.29 410.955 270.958 410.556L270.896 410.482C270.802 410.37 270.717 410.27 270.64 410.183L270.543 410.075C270.507 410.035 270.482 410.008 270.468 409.994C270.321 409.839 270.327 409.594 270.481 409.447Z" fill="#253368"/>
<path d="M299.698 412.154C299.826 411.983 300.068 411.947 300.239 412.075C300.41 412.203 300.445 412.445 300.318 412.616C298.909 414.503 297.609 416.531 296.414 418.681C293.887 423.226 291.933 428.099 290.483 432.972C289.976 434.678 289.567 436.261 289.25 437.682L289.185 437.973C289.11 438.32 289.044 438.637 288.988 438.921L288.952 439.107L288.888 439.458C288.853 439.668 288.653 439.81 288.442 439.775C288.232 439.739 288.09 439.54 288.125 439.329L288.147 439.205C288.165 439.104 288.188 438.986 288.214 438.85L288.278 438.528C288.34 438.221 288.412 437.882 288.495 437.513L288.565 437.202C288.876 435.846 289.266 434.352 289.742 432.752C291.207 427.828 293.181 422.904 295.738 418.305C296.95 416.126 298.268 414.069 299.698 412.154Z" fill="#253368"/>
<path d="M306.456 363.906C306.604 364.047 306.615 364.279 306.484 364.433L306.467 364.452C306.46 364.46 306.443 364.478 306.419 364.504L306.324 364.608L306.268 364.67C306.102 364.855 305.908 365.078 305.69 365.34C305.064 366.089 304.365 366.99 303.612 368.045C301.457 371.062 299.3 374.696 297.287 378.95C293.934 386.034 291.323 394.113 289.741 403.195C287.819 414.224 287.501 426.271 289.074 439.347C289.1 439.559 288.948 439.752 288.736 439.777C288.524 439.803 288.332 439.652 288.306 439.44C286.724 426.289 287.045 414.165 288.979 403.062C290.574 393.91 293.206 385.765 296.588 378.619C298.622 374.322 300.801 370.649 302.983 367.595L303.152 367.36C303.824 366.428 304.453 365.618 305.025 364.929L305.097 364.844C305.302 364.598 305.487 364.384 305.649 364.202L305.693 364.153C305.743 364.097 305.788 364.047 305.828 364.004L305.909 363.917C306.057 363.763 306.302 363.758 306.456 363.906Z" fill="#253368"/>
<path d="M272.982 386.839C273.165 386.728 273.402 386.786 273.513 386.969L273.552 387.034C273.583 387.086 273.619 387.149 273.661 387.221L273.722 387.327C273.825 387.51 273.942 387.719 274.07 387.956L274.177 388.152C274.57 388.885 275.001 389.732 275.461 390.692L275.524 390.823C277.025 393.968 278.526 397.646 279.926 401.825C283.846 413.527 286.231 426.809 286.32 441.431C286.321 441.644 286.149 441.818 285.936 441.82C285.722 441.821 285.548 441.649 285.546 441.435C285.458 426.899 283.087 413.698 279.192 402.071C277.828 397.998 276.368 394.406 274.907 391.327L274.826 391.156C274.327 390.11 273.862 389.197 273.443 388.421L273.317 388.189C273.195 387.968 273.086 387.774 272.99 387.607L272.945 387.528L272.852 387.37C272.741 387.187 272.799 386.949 272.982 386.839Z" fill="#253368"/>
<path fill-rule="evenodd" clip-rule="evenodd" d="M302.745 460.615H269.318C267.511 460.615 266.032 459.137 266.032 457.33V432.943C266.032 431.136 267.511 429.658 269.318 429.658H302.745C304.552 429.658 306.031 431.136 306.031 432.943V457.33C306.031 459.137 304.552 460.615 302.745 460.615Z" fill="#253368"/>
</svg>
