<svg width="1024" height="1024" viewBox="0 0 1024 1024" fill="none" xmlns="http://www.w3.org/2000/svg">
<path fill-rule="evenodd" clip-rule="evenodd" d="M943.759 512.415C943.759 750.66 750.624 943.795 512.379 943.795C274.135 943.795 81 750.66 81 512.415C81 274.171 274.135 81.036 512.379 81.036C750.624 81.036 943.759 274.171 943.759 512.415Z" fill="#ADC6FF"/>
<path fill-rule="evenodd" clip-rule="evenodd" d="M494.72 449.348C494.72 499.505 454.061 540.165 403.904 540.165C353.748 540.165 313.087 499.505 313.087 449.348C313.087 399.192 353.748 358.532 403.904 358.532C454.061 358.532 494.72 399.192 494.72 449.348Z" fill="white"/>
<path fill-rule="evenodd" clip-rule="evenodd" d="M711.671 449.348C711.671 499.505 671.012 540.165 620.855 540.165C570.698 540.165 530.038 499.505 530.038 449.348C530.038 399.192 570.698 358.532 620.855 358.532C671.012 358.532 711.671 399.192 711.671 449.348Z" fill="white"/>
<path fill-rule="evenodd" clip-rule="evenodd" d="M444.267 446.825C444.267 467.724 427.325 484.665 406.427 484.665C385.528 484.665 368.586 467.724 368.586 446.825C368.586 425.927 385.528 408.986 406.427 408.986C427.325 408.986 444.267 425.927 444.267 446.825Z" fill="#253368"/>
<path fill-rule="evenodd" clip-rule="evenodd" d="M656.173 446.825C656.173 467.724 639.23 484.665 618.333 484.665C597.434 484.665 580.492 467.724 580.492 446.825C580.492 425.927 597.434 408.986 618.333 408.986C639.23 408.986 656.173 425.927 656.173 446.825Z" fill="#253368"/>
<path fill-rule="evenodd" clip-rule="evenodd" d="M371.99 706.666C369.725 706.666 367.428 706.156 365.263 705.079C357.777 701.356 354.728 692.271 358.45 684.786C384.878 631.645 445.3 597.309 512.38 597.309C579.459 597.309 639.88 631.645 666.31 684.786C670.031 692.271 666.982 701.356 659.497 705.079C652.011 708.801 642.926 705.751 639.204 698.267C617.847 655.326 568.066 627.581 512.38 627.581C456.692 627.581 406.911 655.326 385.555 698.266C382.909 703.586 377.554 706.666 371.99 706.666Z" fill="#253368"/>
<path fill-rule="evenodd" clip-rule="evenodd" d="M498.083 266.837C502.611 278.375 508.199 287.477 514.939 294.241C520.878 288.409 524.095 280.946 524.546 271.897C525.096 260.848 522.115 253.026 516.152 249.869C511.83 247.582 506.323 248.01 502.451 250.937C497.274 254.848 497.131 261.539 498.083 266.837ZM553.14 339.484C545.309 339.484 537.58 338.612 530.068 336.657C524.329 335.165 518.902 333.117 513.796 330.521C509.683 332.305 505.292 333.834 500.637 335.092C474.161 342.241 440.937 340.099 409.487 329.215C375.697 317.522 348.08 297.247 331.722 272.126C327.16 265.121 329.141 255.744 336.146 251.183C343.152 246.621 352.529 248.602 357.089 255.607C383.219 295.736 444.69 315.002 486.208 307.343C479.538 298.735 473.908 288.429 469.346 276.456L468.93 275.364L468.687 274.222C464.582 254.958 470.382 237.223 484.203 226.782C497.477 216.754 515.578 215.314 530.312 223.113C547.013 231.953 555.933 250.282 554.781 273.402C554.117 286.751 549.918 298.582 542.621 308.402C586.935 315.69 649.527 273.275 670.636 255.624C677.045 250.264 686.59 251.11 691.955 257.515C697.318 263.923 696.48 273.461 690.077 278.829C686.783 281.589 616.902 339.484 553.14 339.484Z" fill="#253368"/>
</svg>
