<svg width="32" height="33" viewBox="0 0 32 33" fill="none" xmlns="http://www.w3.org/2000/svg">
<g clip-path="url(#clip0_1240_2911)">
<path d="M1.95519 2.0052C1.92653 2.0052 1.89788 2.0052 1.8675 2.00738C1.82003 2.00866 1.79692 2.0103 1.7738 2.0123C1.72633 2.01667 1.69825 2.02003 1.67036 2.02404C1.62823 2.03059 1.60646 2.03432 1.58468 2.0385C1.53281 2.0486 1.50588 2.05433 1.47923 2.06089C1.44685 2.06907 1.42278 2.07563 1.39899 2.08245C1.35381 2.09637 1.33471 2.10256 1.31561 2.10893C1.2688 2.12512 1.24454 2.13422 1.22047 2.14387C1.17806 2.16143 1.16144 2.16852 1.14482 2.1758L1.11617 2.18863C1.09706 2.19773 1.07796 2.20683 1.05886 2.21593L1.02762 2.23231C1.01186 2.24077 0.996101 2.24923 0.980627 2.25796L0.94968 2.27598L0.910995 2.29973L0.88234 2.31829C0.863237 2.33085 0.844133 2.34368 0.82503 2.35678L0.791504 2.38216L0.761129 2.40482L0.728462 2.4302L0.699807 2.45395C0.680704 2.46942 0.66246 2.48525 0.645076 2.50145L0.621579 2.52274C0.610308 2.53311 0.599228 2.54367 0.588339 2.5544L0.567994 2.5746C0.544688 2.59808 0.52205 2.6221 0.500081 2.64666C0.482601 2.66659 0.471713 2.67915 0.46111 2.69198L0.445636 2.71081C0.435034 2.72391 0.424432 2.73811 0.414402 2.75012C0.386511 2.78733 0.366835 2.81463 0.347922 2.84211L0.337033 2.85821C0.327482 2.87259 0.31793 2.88714 0.308378 2.90188L0.298063 2.91881L0.290039 2.93246L4.07423 5.14676L4.87543 6.00141C4.79167 5.87471 4.7845 5.71526 4.85658 5.5822C4.92866 5.44915 5.06923 5.36232 5.22617 5.35394H18.1198C18.1654 5.35721 18.211 5.3594 18.2574 5.3594C19.2185 5.34579 19.9909 4.60114 19.9937 3.6855C19.9966 2.76987 19.2287 2.02092 18.2677 2.00195L1.95519 2.0052Z" fill="url(#paint0_linear_1240_2911)"/>
<path d="M22.7375 13.3167L16.3445 24.3272C16.2686 24.4562 16.1315 24.5375 15.9812 24.5424C15.831 24.5474 15.6887 24.4753 15.6044 24.3516L11.5422 17.3567C11.5088 17.2771 11.4696 17.2 11.4247 17.1262L4.66659 5.4603C4.27791 4.76137 4.27621 3.9132 4.66208 3.21274C5.04796 2.51227 5.76767 2.05708 6.56924 2.00653L1.98092 2.00232C1.69394 1.99373 1.40877 2.05029 1.14706 2.1677C1.10452 2.18717 1.07091 2.20364 1.03778 2.22105C0.949116 2.27001 0.928409 2.28264 0.907889 2.29575L0.808493 2.36314C0.757383 2.40142 0.741758 2.41377 0.726322 2.42631C0.686884 2.45926 0.672765 2.47162 0.658834 2.48416C0.623255 2.51645 0.605183 2.53386 0.587676 2.55155C0.553038 2.58665 0.537413 2.60331 0.522164 2.62034C0.495621 2.64983 0.478396 2.67033 0.461454 2.6911C0.430392 2.72901 0.414579 2.74979 0.399049 2.77085C0.379565 2.79724 0.363752 2.82055 0.348221 2.84414C0.321113 2.88569 0.306147 2.90984 0.291746 2.93483C-0.096377 3.53086 -0.0882764 4.25443 0.262661 4.83469L0.42898 5.12335L14.3027 29.019C14.4389 29.2703 14.631 29.4874 14.8643 29.6538C14.9024 29.6807 14.9336 29.7014 14.9654 29.7212C15.0534 29.7717 15.0748 29.7832 15.0964 29.7942L15.2037 29.8451C15.2629 29.87 15.2817 29.8773 15.3006 29.8844C15.349 29.9015 15.3668 29.9075 15.3847 29.9133C15.4307 29.9276 15.4547 29.9344 15.479 29.9408C15.5272 29.9527 15.5495 29.9578 15.5719 29.9627C15.6106 29.9709 15.6372 29.9754 15.6637 29.9796C15.7123 29.9866 15.7383 29.9902 15.7645 29.9928C15.7978 29.9956 15.8261 29.9975 15.8543 29.9992C15.9037 29.9992 15.932 30.0015 15.9602 30.0015C15.9992 30.0015 16.0229 30.0015 16.0463 29.9998C16.0966 29.9984 16.1223 29.9964 16.1488 29.9936C16.1819 29.9908 16.2101 29.9871 16.2361 29.9832C16.283 29.9759 16.307 29.9717 16.3307 29.9669C16.3677 29.9596 16.3934 29.9534 16.4191 29.9473C16.4645 29.9354 16.4853 29.9295 16.506 29.9231C16.5473 29.9105 16.571 29.9023 16.5947 29.8939C16.6401 29.8774 16.6571 29.8707 16.674 29.8636C16.7201 29.8442 16.7415 29.8347 16.7627 29.8254L16.8339 29.7897C16.8909 29.7589 16.9064 29.7502 16.9214 29.7412C17.008 29.6865 17.0304 29.6712 17.0524 29.6555C17.0733 29.6405 17.0984 29.6217 17.1275 29.5991C17.1703 29.5654 17.2114 29.5299 17.2509 29.4927C17.3021 29.4442 17.3418 29.4028 17.3794 29.3596C17.4221 29.3107 17.459 29.2639 17.4938 29.2152C17.529 29.166 17.5617 29.1151 17.592 29.0625L17.9676 28.4231L18.0495 28.2827L25.7295 15.0573C26.0641 14.5257 26.082 13.8554 25.7764 13.3068C25.4708 12.7582 24.8899 12.4178 24.2592 12.4178C23.6254 12.4193 23.0417 12.7634 22.7375 13.3167Z" fill="url(#paint1_linear_1240_2911)"/>
<path d="M30.1374 2.00146H23.6784C22.7431 2.01979 21.9937 2.84863 21.9937 3.86478C21.9937 4.88092 22.7431 5.70976 23.6784 5.72809C23.7236 5.72809 23.768 5.72566 23.8123 5.72203H26.7369C26.9512 5.75397 27.1109 5.95278 27.111 6.1877C27.111 6.24098 27.1026 6.29386 27.0861 6.34404L25.5442 9.24505C25.0904 10.1486 25.397 11.2807 26.2288 11.7735C27.0607 12.2664 28.1029 11.9335 28.5567 11.0299L31.7465 5.02942C31.7757 4.97468 31.8026 4.91833 31.8271 4.86036L31.8302 4.85279C31.8453 4.81663 31.8594 4.77997 31.8726 4.7428L31.8748 4.73705C31.8807 4.72008 31.8865 4.70281 31.8921 4.68554L31.9005 4.65888C31.9079 4.63484 31.9149 4.6105 31.9214 4.58586C31.9253 4.57193 31.9289 4.55769 31.9326 4.54375C31.9362 4.52981 31.939 4.51678 31.942 4.50345C31.9451 4.49012 31.9496 4.46861 31.9532 4.45104C31.9557 4.43862 31.9582 4.42619 31.9605 4.41377C31.9647 4.39014 31.9686 4.3663 31.9722 4.34227C31.9737 4.33237 31.9751 4.32227 31.9764 4.31197C31.9797 4.28652 31.9828 4.26077 31.9853 4.23501C31.9853 4.23138 31.9853 4.22805 31.9853 4.22441C31.9881 4.19411 31.99 4.16381 31.9914 4.13533C31.9914 4.12766 31.9914 4.11988 31.9914 4.11201C31.9914 4.08171 31.9937 4.05141 31.9937 4.02111C31.9944 2.90665 31.1634 2.00247 30.1374 2.00146Z" fill="url(#paint2_linear_1240_2911)"/>
<path d="M19.8815 9.41125C19.732 9.15767 19.4555 9.00145 19.1563 9.00146H12.831C12.5319 9.00139 12.2554 9.15755 12.1058 9.41109C11.9562 9.66463 11.9563 9.97702 12.1059 10.2305L15.2688 15.5918C15.4184 15.8453 15.6948 16.0015 15.9938 16.0015C16.2929 16.0015 16.5693 15.8453 16.7188 15.5918L19.8815 10.2308C20.031 9.97733 20.031 9.66502 19.8815 9.41153V9.41125Z" fill="url(#paint3_linear_1240_2911)"/>
</g>
<defs>
<linearGradient id="paint0_linear_1240_2911" x1="0.290827" y1="4.0014" x2="20.0196" y2="4.0014" gradientUnits="userSpaceOnUse">
<stop stop-color="#6500FF"/>
<stop offset="0.16" stop-color="#6A09FF"/>
<stop offset="0.43" stop-color="#7623FF"/>
<stop offset="0.77" stop-color="#8A4CFF"/>
<stop offset="0.99" stop-color="#996BFF"/>
</linearGradient>
<linearGradient id="paint1_linear_1240_2911" x1="12.9979" y1="30.0048" x2="12.9979" y2="2.00146" gradientUnits="userSpaceOnUse">
<stop stop-color="#6500FF"/>
<stop offset="0.16" stop-color="#6909FF"/>
<stop offset="0.43" stop-color="#7523FF"/>
<stop offset="0.77" stop-color="#894CFF"/>
<stop offset="0.99" stop-color="#976BFF"/>
</linearGradient>
<linearGradient id="paint2_linear_1240_2911" x1="26.9791" y1="12.027" x2="26.9791" y2="2.00146" gradientUnits="userSpaceOnUse">
<stop stop-color="#FF6E06"/>
<stop offset="0.28" stop-color="#FF770C"/>
<stop offset="0.75" stop-color="#FF911C"/>
<stop offset="1" stop-color="#FFA126"/>
</linearGradient>
<linearGradient id="paint3_linear_1240_2911" x1="4600.07" y1="4199.2" x2="4600.07" y2="2460.61" gradientUnits="userSpaceOnUse">
<stop stop-color="#FF6E06"/>
<stop offset="0.28" stop-color="#FF770C"/>
<stop offset="0.75" stop-color="#FF911C"/>
<stop offset="1" stop-color="#FFA126"/>
</linearGradient>
<clipPath id="clip0_1240_2911">
<rect width="32" height="32" fill="white" transform="translate(0 0.00146484)"/>
</clipPath>
</defs>
</svg>