<svg width="863" height="879" viewBox="0 0 863 879" fill="none" xmlns="http://www.w3.org/2000/svg">
<circle cx="424.429" cy="438.429" r="285.95" fill="#597EF7"/>
<path d="M204.5 558.269C269.542 558.269 322.269 505.542 322.269 440.5C322.269 375.458 269.542 322.731 204.5 322.731C139.458 322.731 86.7314 375.458 86.7314 440.5C86.7314 505.542 139.458 558.269 204.5 558.269Z" fill="#597EF7"/>
<path d="M204.5 549.857C264.896 549.857 313.857 500.896 313.857 440.5C313.857 380.104 264.896 331.144 204.5 331.144C144.104 331.144 95.1435 380.104 95.1435 440.5C95.1435 500.896 144.104 549.857 204.5 549.857Z" fill="#A3B5D6"/>
<path d="M204.5 545.914C262.718 545.914 309.914 498.718 309.914 440.5C309.914 382.282 262.718 335.087 204.5 335.087C146.282 335.087 99.0868 382.282 99.0868 440.5C99.0868 498.718 146.282 545.914 204.5 545.914Z" fill="white"/>
<path d="M204.5 373.446C206.823 373.446 208.706 375.329 208.706 377.652V437.417H200.294V377.652C200.294 375.329 202.177 373.446 204.5 373.446Z" fill="#253368"/>
<path d="M247.328 440.5C247.328 442.823 245.445 444.706 243.122 444.706H204.5V436.294H243.122C245.445 436.294 247.328 438.177 247.328 440.5Z" fill="#253368"/>
<path d="M204.5 450.227C209.872 450.227 214.227 445.872 214.227 440.5C214.227 435.128 209.872 430.774 204.5 430.774C199.128 430.774 194.774 435.128 194.774 440.5C194.774 445.872 199.128 450.227 204.5 450.227Z" fill="#FF7946"/>
<path d="M208.696 352.174C208.696 349.851 206.812 347.968 204.49 347.968C202.167 347.968 200.284 349.851 200.284 352.174V360.586C200.284 362.909 202.167 364.792 204.49 364.792C206.812 364.792 208.696 362.909 208.696 360.586V352.174Z" fill="#E4EBF7"/>
<path d="M139.062 375.075C140.705 373.432 143.368 373.432 145.01 375.075L150.958 381.023C152.601 382.666 152.601 385.329 150.958 386.971C149.316 388.614 146.653 388.614 145.01 386.971L139.062 381.023C137.419 379.381 137.419 376.717 139.062 375.075Z" fill="#E4EBF7"/>
<path d="M111.968 440.511C111.968 438.188 113.851 436.305 116.174 436.305H124.586C126.909 436.305 128.792 438.188 128.792 440.511C128.792 442.833 126.909 444.717 124.586 444.717H116.174C113.851 444.717 111.968 442.833 111.968 440.511Z" fill="#E4EBF7"/>
<path d="M139.076 505.939C137.434 504.296 137.434 501.633 139.076 499.991L145.025 494.043C146.667 492.4 149.33 492.4 150.973 494.043C152.615 495.685 152.615 498.348 150.973 499.991L145.025 505.939C143.382 507.581 140.719 507.581 139.076 505.939Z" fill="#E4EBF7"/>
<path d="M200.305 528.827C200.305 531.15 202.188 533.033 204.511 533.033C206.833 533.033 208.717 531.15 208.717 528.827V520.415C208.717 518.092 206.833 516.209 204.511 516.209C202.188 516.209 200.305 518.092 200.305 520.415V528.827Z" fill="#E4EBF7"/>
<path d="M269.937 505.923C268.295 507.565 265.632 507.565 263.989 505.923L258.041 499.974C256.398 498.332 256.398 495.669 258.041 494.026C259.684 492.384 262.347 492.384 263.989 494.026L269.937 499.974C271.58 501.617 271.58 504.28 269.937 505.923Z" fill="#E4EBF7"/>
<path d="M297.033 440.489C297.033 442.812 295.149 444.695 292.827 444.695H284.415C282.092 444.695 280.209 442.812 280.209 440.489C280.209 438.167 282.092 436.283 284.415 436.283H292.827C295.149 436.283 297.033 438.167 297.033 440.489Z" fill="#E4EBF7"/>
<path d="M269.924 375.063C271.567 376.706 271.567 379.369 269.924 381.012L263.976 386.96C262.333 388.602 259.67 388.602 258.028 386.96C256.385 385.317 256.385 382.654 258.028 381.012L263.976 375.063C265.619 373.421 268.282 373.421 269.924 375.063Z" fill="#E4EBF7"/>
<path fill-rule="evenodd" clip-rule="evenodd" d="M521.019 486.408C483.963 468.881 461.877 514.85 480.514 540.445C503.256 571.678 514.906 607.617 521.393 618.445C526.866 627.579 541.857 649.848 559.909 639.584C576.522 630.138 567.468 593.064 567.468 593.064C567.468 593.064 566.734 508.032 521.019 486.408Z" fill="#5B8C00"/>
<path fill-rule="evenodd" clip-rule="evenodd" d="M632.479 632.446C645.077 615.449 649.677 591.058 635.615 584.804C622.134 578.807 599.802 593.572 589.458 621.988C579.114 650.404 573.146 670.834 583.264 674.386C599.865 680.214 615.84 654.895 632.479 632.446Z" fill="#5B8C00"/>
<path fill-rule="evenodd" clip-rule="evenodd" d="M500.035 633.737C514.284 650.435 534.846 684.025 547.728 672.26C555.535 665.131 545.098 631.366 516.529 612.995C492.227 597.369 485.786 617.039 500.035 633.737Z" fill="#7CB305"/>
<path fill-rule="evenodd" clip-rule="evenodd" d="M636.384 517.86C630.966 514.215 624.149 513.382 617.93 515.374C609.249 518.155 596.077 526.433 583.04 550.194C566.019 581.216 557.158 615.225 558.91 636.767C560.055 650.855 577.411 656.929 587.12 646.657C591.579 641.939 596.298 634.667 600.914 623.635C619.492 579.24 636.861 551.42 638.932 548.626C644.459 541.172 648.41 525.952 636.384 517.86Z" fill="#7CB305"/>
<path fill-rule="evenodd" clip-rule="evenodd" d="M623.925 535.568C623.741 537.76 625.369 539.686 627.561 539.87C629.753 540.054 631.679 538.426 631.863 536.234C632.047 534.042 630.419 532.116 628.227 531.932C626.035 531.748 624.109 533.376 623.925 535.568Z" fill="white"/>
<path fill-rule="evenodd" clip-rule="evenodd" d="M590.095 552.573C589.911 554.765 591.539 556.691 593.731 556.875C595.923 557.059 597.849 555.431 598.033 553.239C598.217 551.047 596.589 549.121 594.397 548.937C592.205 548.753 590.279 550.381 590.095 552.573Z" fill="white"/>
<path fill-rule="evenodd" clip-rule="evenodd" d="M595.765 597.849C595.554 600.36 597.419 602.565 599.929 602.775C602.439 602.986 604.645 601.122 604.855 598.612C605.066 596.102 603.202 593.896 600.691 593.685C598.182 593.475 595.976 595.339 595.765 597.849Z" fill="white"/>
<path fill-rule="evenodd" clip-rule="evenodd" d="M491.857 530.186C491.857 533.748 494.745 536.636 498.308 536.636C501.87 536.636 504.758 533.748 504.758 530.186C504.758 526.623 501.87 523.735 498.308 523.735C494.745 523.735 491.857 526.623 491.857 530.186Z" fill="white"/>
<path fill-rule="evenodd" clip-rule="evenodd" d="M543.784 549.883C543.784 553.446 546.673 556.334 550.235 556.334C553.797 556.334 556.685 553.446 556.685 549.883C556.685 546.321 553.797 543.433 550.235 543.433C546.673 543.433 543.784 546.321 543.784 549.883Z" fill="white"/>
<path fill-rule="evenodd" clip-rule="evenodd" d="M526.967 593.669C526.967 595.158 528.174 596.365 529.663 596.365C531.152 596.365 532.359 595.158 532.359 593.669C532.359 592.18 531.152 590.973 529.663 590.973C528.174 590.973 526.967 592.18 526.967 593.669Z" fill="white"/>
<path fill-rule="evenodd" clip-rule="evenodd" d="M507.543 628.149C507.543 630.348 509.327 632.131 511.526 632.131C513.726 632.131 515.509 630.348 515.509 628.149C515.509 625.949 513.726 624.166 511.526 624.166C509.327 624.166 507.543 625.949 507.543 628.149Z" fill="white"/>
<path d="M600.571 636.982C600.2 636.628 599.612 636.642 599.258 637.013L599.088 637.197L598.959 637.339C598.725 637.601 598.455 637.912 598.151 638.275C597.288 639.304 596.328 640.534 595.296 641.963C592.354 646.036 589.415 650.896 586.674 656.534C578.851 672.624 574.16 691.735 574.16 713.798C574.16 714.31 574.576 714.726 575.089 714.726C575.602 714.726 576.017 714.31 576.017 713.798C576.017 692.026 580.641 673.191 588.345 657.346C591.037 651.807 593.921 647.039 596.801 643.051C597.748 641.74 598.629 640.605 599.426 639.646L599.574 639.468C599.8 639.199 600.006 638.959 600.19 638.751L600.423 638.49C600.509 638.394 600.569 638.33 600.602 638.295C600.956 637.924 600.942 637.336 600.571 636.982Z" fill="#253368"/>
<path d="M530.407 643.483C530.1 643.072 529.518 642.987 529.107 643.294C528.696 643.601 528.612 644.183 528.919 644.594C532.301 649.124 535.423 653.995 538.293 659.159C544.362 670.074 549.054 681.776 552.536 693.479C553.755 697.575 554.735 701.378 555.498 704.789L555.653 705.488C555.835 706.322 555.992 707.083 556.126 707.765L556.213 708.211L556.367 709.054C556.452 709.559 556.931 709.9 557.437 709.815C557.943 709.73 558.284 709.251 558.199 708.745L558.146 708.446C558.102 708.205 558.049 707.921 557.986 707.595L557.832 706.822C557.683 706.085 557.509 705.27 557.311 704.383L557.142 703.638C556.396 700.381 555.46 696.792 554.316 692.95C550.798 681.125 546.057 669.3 539.917 658.256C537.007 653.022 533.841 648.082 530.407 643.483Z" fill="#253368"/>
<path d="M514.178 527.614C513.822 527.955 513.796 528.51 514.109 528.882L514.15 528.927C514.168 528.946 514.207 528.988 514.267 529.052L514.495 529.302L514.628 529.449C515.028 529.894 515.492 530.431 516.017 531.058C517.521 532.857 519.199 535.022 521.007 537.554C526.183 544.8 531.361 553.527 536.197 563.744C544.248 580.755 550.518 600.157 554.319 621.969C558.933 648.454 559.697 677.387 555.92 708.789C555.859 709.298 556.222 709.76 556.731 709.822C557.24 709.883 557.703 709.52 557.764 709.01C561.563 677.429 560.794 648.313 556.148 621.65C552.319 599.67 545.997 580.109 537.876 562.95C532.992 552.63 527.757 543.808 522.519 536.475L522.113 535.909C520.498 533.673 518.988 531.727 517.613 530.072L517.442 529.867C516.948 529.277 516.505 528.763 516.115 528.326L516.011 528.209C515.889 528.073 515.78 527.953 515.685 527.85L515.491 527.642C515.136 527.272 514.548 527.259 514.178 527.614Z" fill="#253368"/>
<path d="M594.566 582.688C594.127 582.422 593.556 582.562 593.29 583.001L593.197 583.158C593.122 583.283 593.035 583.433 592.935 583.607L592.789 583.862C592.54 584.3 592.26 584.803 591.952 585.37L591.697 585.843C590.752 587.602 589.717 589.636 588.612 591.941L588.461 592.257C584.856 599.81 581.252 608.643 577.89 618.679C568.476 646.781 562.749 678.677 562.534 713.792C562.531 714.305 562.944 714.723 563.457 714.726C563.97 714.729 564.389 714.316 564.392 713.803C564.605 678.894 570.297 647.192 579.651 619.269C582.928 609.487 586.434 600.863 589.942 593.467L590.137 593.057C591.336 590.545 592.452 588.352 593.459 586.488L593.762 585.931C594.053 585.4 594.315 584.934 594.545 584.533L594.655 584.343L594.878 583.964C595.144 583.525 595.004 582.954 594.566 582.688Z" fill="#253368"/>
<path fill-rule="evenodd" clip-rule="evenodd" d="M523.089 759.864H603.366C607.705 759.864 611.255 756.314 611.255 751.974V693.409C611.255 689.069 607.705 685.519 603.366 685.519H523.089C518.75 685.519 515.199 689.069 515.199 693.409V751.974C515.199 756.314 518.75 759.864 523.089 759.864Z" fill="#253368"/>
<path fill-rule="evenodd" clip-rule="evenodd" d="M774.978 190.843H472.122V163.706C472.122 157.819 476.895 153.047 482.781 153.047H764.318C770.205 153.047 774.978 157.819 774.978 163.706V190.843Z" fill="#253368"/>
<path fill-rule="evenodd" clip-rule="evenodd" d="M764.318 452.13H482.781C476.895 452.13 472.122 447.358 472.122 441.471V187.664H774.978V441.471C774.978 447.358 770.205 452.13 764.318 452.13Z" fill="#E4EBF7"/>
<path fill-rule="evenodd" clip-rule="evenodd" d="M496.734 170.636C496.734 174.33 493.739 177.326 490.044 177.326C486.35 177.326 483.355 174.33 483.355 170.636C483.355 166.942 486.35 163.946 490.044 163.946C493.739 163.946 496.734 166.942 496.734 170.636Z" fill="#FF7946"/>
<path fill-rule="evenodd" clip-rule="evenodd" d="M521.716 170.636C521.716 174.33 518.722 177.326 515.027 177.326C511.332 177.326 508.338 174.33 508.338 170.636C508.338 166.942 511.332 163.946 515.027 163.946C518.722 163.946 521.716 166.942 521.716 170.636Z" fill="#FAAD14"/>
<path fill-rule="evenodd" clip-rule="evenodd" d="M546.699 170.636C546.699 174.33 543.705 177.326 540.01 177.326C536.315 177.326 533.321 174.33 533.321 170.636C533.321 166.942 536.315 163.946 540.01 163.946C543.705 163.946 546.699 166.942 546.699 170.636Z" fill="#7CB305"/>
<path fill-rule="evenodd" clip-rule="evenodd" d="M504.855 416.157C503.018 416.157 501.529 414.669 501.529 412.834V220.163C501.529 218.327 503.018 216.839 504.855 216.839H745.554C747.391 216.839 748.88 218.327 748.88 220.163V412.834C748.88 414.669 747.391 416.157 745.554 416.157H504.855Z" fill="white"/>
<path fill-rule="evenodd" clip-rule="evenodd" d="M592.805 273.527C592.805 291.05 578.632 305.254 561.148 305.254C543.664 305.254 529.49 291.05 529.49 273.527C529.49 256.005 543.664 241.801 561.148 241.801C578.632 241.801 592.805 256.005 592.805 273.527Z" fill="#FF7946"/>
<path d="M722.173 273.684H623.574V372.283H722.173V273.684Z" fill="#597EF7"/>
<path fill-rule="evenodd" clip-rule="evenodd" d="M592.833 316.046L648.699 401.895H536.967L592.833 316.046Z" fill="#FAAD14"/>
<path fill-rule="evenodd" clip-rule="evenodd" d="M351.849 393.906L344.819 408.936C344.819 408.936 291.106 383.173 282.173 369.294C274.243 356.971 293.012 326.808 293.012 326.808C293.012 326.808 311.762 339.877 315.269 348.107L312.187 357.374L351.849 393.906Z" fill="#FFC999"/>
<path fill-rule="evenodd" clip-rule="evenodd" d="M422.288 369.763L408.257 335.47L434.627 319.859C434.627 319.859 461.635 367.064 456.121 377.628C449.162 390.958 433.481 390.997 422.288 369.763Z" fill="#FFC999"/>
<path fill-rule="evenodd" clip-rule="evenodd" d="M306.121 737.341C289.947 744.292 281.559 734.49 281.559 734.49C281.559 734.49 281.076 731.043 283.889 727.17C287.409 722.321 295.309 720.552 304.627 711.258C311.785 704.118 316.465 693.05 316.465 693.05C321.62 685.327 338.272 694.374 338.272 694.374C338.272 694.374 338.657 710.259 338.381 719.352C338.381 719.352 337.814 724.361 325.38 726.232C316.075 727.631 315.81 733.177 306.121 737.341Z" fill="#4E5C93"/>
<path fill-rule="evenodd" clip-rule="evenodd" d="M385.905 689.626C385.905 689.626 385.357 712.801 387.247 718.892C392.632 724.904 397.329 722.069 404.464 728.042C411.601 734.014 426.599 743.893 439.973 733.371C441.565 726.325 437.084 723.19 431.538 719.491C408.675 704.243 412.633 701.434 408.428 692.524C401.976 678.851 385.689 679.992 385.905 689.626Z" fill="#4E5C93"/>
<path fill-rule="evenodd" clip-rule="evenodd" d="M339.785 383.02C339.785 383.02 332.032 345.437 328.619 331.555C325.205 317.674 319.942 284.42 325.663 281.891C331.384 279.362 345.087 273.979 345.087 273.979C345.087 273.979 356.022 273.516 368.348 276.06C378.107 278.075 377.993 272.326 389.82 274.205C394.829 274.999 414.455 281.007 418.273 283.977C422.09 286.946 415.708 384.541 415.708 384.541C415.708 384.541 420.413 389.32 414.787 395.595C411.998 398.533 399.832 397.622 384.268 397.763C366.552 397.921 345.726 400.283 341.838 396.937C334.534 390.648 339.785 383.02 339.785 383.02Z" fill="#597EF7"/>
<path fill-rule="evenodd" clip-rule="evenodd" d="M384.141 267.477L372.899 277.173L385.702 290.231L391.982 274.496L384.141 267.477Z" fill="#597EF7"/>
<path fill-rule="evenodd" clip-rule="evenodd" d="M418.549 361.217C418.549 361.217 399.792 329.062 398.337 310.337C396.91 291.974 413.045 278.211 421.395 286.209C433.561 297.862 446.584 336.965 446.584 336.965C446.584 336.965 432.917 354.533 418.549 361.217Z" fill="#597EF7"/>
<path d="M441.154 340.355C441.35 340.065 441.743 339.989 442.033 340.185C442.322 340.381 442.398 340.775 442.202 341.065C440.299 343.882 438.186 346.492 435.897 348.903C432.263 352.73 428.369 355.877 424.474 358.39C423.109 359.27 421.841 360.009 420.701 360.611C420.46 360.738 420.236 360.853 420.028 360.958L419.438 361.245C419.353 361.284 419.289 361.314 419.247 361.332C418.927 361.473 418.554 361.328 418.413 361.008C418.272 360.688 418.417 360.314 418.737 360.173L418.989 360.056L419.087 360.009C419.322 359.896 419.588 359.762 419.883 359.609L420.11 359.49C421.218 358.905 422.455 358.184 423.789 357.324C427.603 354.864 431.419 351.78 434.98 348.029C437.221 345.669 439.291 343.113 441.154 340.355Z" fill="#253368"/>
<path fill-rule="evenodd" clip-rule="evenodd" d="M284.967 341.964C284.967 341.964 306.704 295.381 318.411 286.264C330.119 277.148 335.342 281.94 340.073 288.434C343.051 292.521 349.903 304.121 334.79 328.59C323.41 347.015 318.64 353.845 317.282 356.918C298.199 355.639 284.967 341.964 284.967 341.964Z" fill="#597EF7"/>
<path fill-rule="evenodd" clip-rule="evenodd" d="M373.051 280.053L384.289 267.637L380.788 230.697L351.277 233.138L351.032 270.655L373.051 280.053Z" fill="#FFC999"/>
<path fill-rule="evenodd" clip-rule="evenodd" d="M388.365 227.032C388.365 227.032 392.792 222.258 394.757 225.372C396.723 228.487 393.615 239.824 388.722 240.214C382.186 240.735 388.365 227.032 388.365 227.032Z" fill="#FFC999"/>
<path fill-rule="evenodd" clip-rule="evenodd" d="M360.434 256.472C360.434 256.472 370.205 264.16 382.779 256.091C391.832 250.283 392.551 229.905 390.48 215.002C389.308 206.568 385.324 202.099 377.041 199.766C368.756 197.432 346.432 197.806 346.797 222.685C347.205 250.397 360.434 256.472 360.434 256.472Z" fill="#FFC999"/>
<path d="M376.275 219.225C376.492 219.275 376.636 219.473 376.626 219.688L376.615 219.769L375.415 224.955L378.498 238.978C378.553 239.231 378.388 239.473 378.144 239.521L378.068 239.529L372.116 239.703C371.866 239.71 371.657 239.513 371.65 239.263C371.644 239.037 371.802 238.846 372.017 238.804L372.09 238.796L377.495 238.638L374.508 225.05C374.498 225.007 374.495 224.962 374.499 224.917L374.509 224.851L375.732 219.564C375.782 219.347 375.98 219.203 376.194 219.213L376.275 219.225Z" fill="#DD936F"/>
<path d="M356.753 218.161C360.712 215.091 365.668 214.838 369.866 216.995C370.487 217.315 370.733 218.078 370.414 218.701C370.094 219.324 369.332 219.569 368.71 219.25C365.353 217.525 361.451 217.724 358.302 220.165C357.75 220.593 356.955 220.492 356.527 219.938C356.099 219.385 356.2 218.589 356.753 218.161Z" fill="#253368"/>
<path fill-rule="evenodd" clip-rule="evenodd" d="M379.371 241.921C373.11 242.749 366.895 241.468 366.895 241.468C366.895 241.468 368.181 245.953 373.163 246.243C378.688 246.564 379.371 241.921 379.371 241.921Z" fill="white"/>
<path d="M366.287 241.643C366.482 242.321 366.945 243.297 367.776 244.274C369.059 245.782 370.828 246.742 373.126 246.876C375.83 247.033 377.741 246.105 378.934 244.463C379.595 243.555 379.903 242.649 379.997 242.014C380.058 241.597 379.704 241.238 379.288 241.293C376.06 241.72 372.606 241.624 369.305 241.205C368.807 241.142 368.347 241.076 367.93 241.008L367.211 240.884C367.131 240.869 367.068 240.857 367.023 240.847C366.557 240.751 366.156 241.185 366.287 241.643ZM368.036 242.457L367.944 242.293L368.06 242.311C368.399 242.363 368.762 242.414 369.146 242.462L369.785 242.539C372.562 242.855 375.428 242.943 378.188 242.691L378.494 242.659L378.416 242.845C378.282 243.144 378.114 243.438 377.911 243.718C376.968 245.014 375.468 245.743 373.199 245.611C371.264 245.498 369.808 244.708 368.739 243.452C368.468 243.133 368.234 242.798 368.036 242.457Z" fill="#FF7946"/>
<path fill-rule="evenodd" clip-rule="evenodd" d="M349.836 233.292L344.807 223.803C344.807 223.803 341.47 210.045 344.55 204.04C349.33 194.72 360.683 194.748 367.37 192.157C374.059 189.566 373.951 187.298 376.691 187.622C379.43 187.947 390.151 195.128 391.489 202.829C392.665 209.599 391.271 226.932 391.271 226.932C391.271 226.932 389.069 211.65 387.515 207.632C382.136 205.503 362.737 205.768 354.69 208.424C354.69 208.424 354.089 213.653 353.755 217.334C349.48 220.523 349.836 233.292 349.836 233.292Z" fill="#253368"/>
<path d="M382.943 255.223C383.108 255.035 383.394 255.016 383.582 255.181C383.771 255.346 383.789 255.633 383.624 255.821L383.511 255.944C383.376 256.082 383.178 256.268 382.916 256.488C382.342 256.971 381.649 257.452 380.835 257.9C376.368 260.358 370.41 260.838 362.917 258.122C362.682 258.037 362.56 257.776 362.646 257.541C362.731 257.305 362.991 257.183 363.226 257.269C370.472 259.896 376.159 259.438 380.399 257.105C381.159 256.686 381.803 256.239 382.334 255.794C382.647 255.53 382.849 255.33 382.943 255.223Z" fill="#DD936F"/>
<path d="M375.938 222.796C376.438 222.766 376.867 223.147 376.897 223.647C376.925 224.114 376.596 224.519 376.146 224.596L376.047 224.607L371.672 224.872C371.173 224.902 370.743 224.521 370.713 224.021C370.685 223.554 371.014 223.149 371.464 223.072L371.563 223.061L375.938 222.796Z" fill="#253368"/>
<path d="M372.098 225.805C373.005 225.392 373.934 225.171 374.847 225.259C375.645 225.336 376.373 225.652 376.979 226.229C377.341 226.575 377.355 227.149 377.01 227.512C376.665 227.875 376.092 227.889 375.729 227.544C375.426 227.255 375.08 227.105 374.673 227.065C374.127 227.013 373.492 227.163 372.849 227.456C372.507 227.612 372.247 227.766 372.116 227.858C371.705 228.144 371.14 228.043 370.854 227.632C370.568 227.221 370.669 226.656 371.079 226.369C371.294 226.219 371.645 226.011 372.098 225.805Z" fill="#253368"/>
<path d="M378.939 216.517C381.022 215.696 383.133 215.247 385.155 215.379C386.625 215.474 387.984 215.88 389.186 216.639C389.777 217.012 389.954 217.795 389.582 218.387C389.209 218.979 388.427 219.156 387.836 218.782C387.01 218.261 386.059 217.977 384.991 217.908C383.396 217.804 381.632 218.179 379.867 218.875C379.312 219.093 378.8 219.327 378.344 219.561L378.046 219.717C377.936 219.777 377.854 219.824 377.804 219.854C377.205 220.214 376.427 220.02 376.067 219.42C375.707 218.82 375.901 218.042 376.5 217.681C377.002 217.38 377.848 216.947 378.939 216.517Z" fill="#253368"/>
<path d="M375.379 248.221C375.629 248.209 375.841 248.402 375.853 248.652C375.864 248.877 375.708 249.072 375.495 249.117L375.422 249.127L371.854 249.297C371.604 249.308 371.392 249.115 371.38 248.865C371.369 248.64 371.525 248.445 371.738 248.4L371.811 248.39L375.379 248.221Z" fill="#DD936F"/>
<path d="M355.366 225.065C355.866 225.044 356.288 225.433 356.309 225.933C356.329 226.401 355.992 226.8 355.54 226.868L355.442 226.878L348.261 227.179C347.761 227.2 347.338 226.812 347.318 226.311C347.298 225.844 347.635 225.444 348.087 225.376L348.185 225.367L355.366 225.065Z" fill="#253368"/>
<path fill-rule="evenodd" clip-rule="evenodd" d="M355.865 223.259L369.572 222.607C370.529 222.561 371.341 223.298 371.38 224.256C371.451 226.044 371.488 228.915 371.14 231.39C370.73 234.311 368.215 236.206 365.281 236.482C361.62 236.827 358.324 236.987 356.569 235.16C353.892 232.373 354.287 227.56 354.221 225.024C354.197 224.093 354.937 223.303 355.865 223.259Z" fill="white"/>
<path d="M369.558 222.305L355.851 222.957C354.758 223.01 353.891 223.938 353.919 225.032L353.928 225.686L353.929 226.123C353.933 228.109 353.975 229.124 354.164 230.37C354.48 232.458 355.161 234.13 356.351 235.369C357.944 237.027 360.297 237.255 365.31 236.783C368.512 236.482 371.024 234.385 371.439 231.432C371.713 229.482 371.777 227.196 371.702 224.799L371.682 224.244C371.636 223.119 370.683 222.251 369.558 222.305ZM369.586 222.908C370.336 222.873 370.976 223.418 371.069 224.146L371.079 224.268C371.181 226.833 371.13 229.291 370.841 231.348C370.468 234.006 368.192 235.905 365.253 236.182C360.435 236.635 358.197 236.418 356.786 234.95C355.695 233.814 355.06 232.254 354.76 230.279L354.702 229.86C354.586 228.963 354.547 228.11 354.536 226.775L354.523 225.016C354.503 224.252 355.114 223.598 355.88 223.561L369.586 222.908Z" fill="#253368"/>
<path fill-rule="evenodd" clip-rule="evenodd" d="M377.236 222.089L392.754 221.351C393.436 223.595 393.298 232.398 390.725 234.407C387.246 236.448 380.003 235.98 378.792 234.128C376.955 231.317 376.064 225.832 375.982 223.456C375.955 222.732 376.513 222.123 377.236 222.089Z" fill="white"/>
<path d="M392.74 221.049L377.222 221.787C376.334 221.829 375.648 222.577 375.68 223.467C375.797 226.833 376.948 231.858 378.539 234.293C379.917 236.401 387.424 236.694 390.878 234.667C393.209 232.851 394.034 224.524 393.043 221.262C393.003 221.13 392.878 221.042 392.74 221.049ZM392.527 221.663L392.564 221.812C393.329 225.099 392.512 232.628 390.54 234.168C387.364 236.028 380.213 235.75 379.044 233.962C377.525 231.637 376.397 226.711 376.284 223.446C376.263 222.886 376.693 222.417 377.25 222.391L392.527 221.663Z" fill="#253368"/>
<path d="M371.374 222.155C371.874 222.144 372.289 222.541 372.299 223.042C372.309 223.51 371.964 223.902 371.511 223.961L371.413 223.969L354.403 224.331C353.902 224.342 353.488 223.944 353.477 223.443C353.467 222.976 353.812 222.583 354.265 222.524L354.364 222.517L371.374 222.155Z" fill="#253368"/>
<path d="M392.841 220.782C393.34 220.751 393.77 221.132 393.801 221.632C393.829 222.099 393.5 222.505 393.05 222.582L392.952 222.593L376.314 223.62C375.815 223.65 375.385 223.27 375.354 222.77C375.325 222.303 375.654 221.897 376.104 221.82L376.203 221.808L392.841 220.782Z" fill="#253368"/>
<path fill-rule="evenodd" clip-rule="evenodd" d="M347.509 225.59C345.741 223.796 343.016 223.317 341.107 225.418C338.034 228.803 341.005 241.277 349.373 241.735C352.546 241.272 350.269 228.39 347.509 225.59Z" fill="#FFC999"/>
<path fill-rule="evenodd" clip-rule="evenodd" d="M366.813 227.752C366.863 229.308 366.003 230.6 364.892 230.634C363.782 230.669 362.842 229.438 362.792 227.882C362.743 226.324 363.604 225.034 364.714 224.999C365.823 224.963 366.764 226.196 366.813 227.752Z" fill="#253368"/>
<path fill-rule="evenodd" clip-rule="evenodd" d="M385.578 227.155C385.627 228.711 384.766 230.001 383.656 230.036C382.546 230.072 381.606 228.839 381.557 227.283C381.507 225.727 382.368 224.437 383.478 224.401C384.588 224.366 385.528 225.599 385.578 227.155Z" fill="#253368"/>
<path fill-rule="evenodd" clip-rule="evenodd" d="M427.328 368.286C427.328 368.286 432.757 387.694 449.916 384.127C461.633 381.69 473.052 320.515 473.955 313.409C474.601 308.33 459.304 307.495 459.304 307.495L427.328 368.286Z" fill="#FFC999"/>
<path fill-rule="evenodd" clip-rule="evenodd" d="M342.36 698.028L377.248 461.166L379.506 460.662L381.59 696.894C381.59 696.894 401.168 702.567 411.455 696.295C411.558 650.212 425.408 500.587 420.378 432.259C419.568 421.258 416.093 406.32 415.389 402.167C383.982 397.063 341.236 404.573 341.236 404.573L312.305 694.62C312.305 694.62 327.871 702.784 342.36 698.028Z" fill="#ADC6FF"/>
<path d="M395.444 451.397C395.668 451.285 395.94 451.377 396.051 451.601C396.15 451.801 396.089 452.038 395.916 452.166L395.847 452.209L376.996 461.583C376.772 461.695 376.5 461.603 376.389 461.379C376.29 461.179 376.351 460.942 376.524 460.814L376.593 460.771L395.444 451.397Z" fill="#597EF7"/>
<path fill-rule="evenodd" clip-rule="evenodd" d="M341.647 396.839C341.647 396.839 381.557 390.667 414.804 396.275C415.096 399.221 415.403 402.848 415.403 402.848C415.403 402.848 388.492 396.416 341.518 405.653C341.595 397.654 341.647 396.839 341.647 396.839Z" fill="#ADC6FF"/>
<path d="M355.323 405.144C369.72 403.902 384.435 403.378 398.173 403.981C404.002 404.236 409.503 404.693 414.624 405.37C414.872 405.402 415.047 405.63 415.014 405.879C414.981 406.127 414.753 406.302 414.505 406.269C409.412 405.597 403.937 405.141 398.133 404.887C384.439 404.286 369.761 404.809 355.4 406.048C352.383 406.308 349.581 406.584 347.036 406.863L345.673 407.015C345.094 407.081 344.554 407.144 344.054 407.204L342.063 407.454C341.815 407.487 341.587 407.313 341.554 407.065C341.52 406.817 341.694 406.588 341.942 406.555L342.508 406.481L343.946 406.303C344.448 406.243 344.99 406.18 345.571 406.113L346.937 405.961C349.489 405.682 352.298 405.405 355.323 405.144Z" fill="#597EF7"/>
<path d="M355.083 394.977C369.486 393.735 384.206 393.21 397.951 393.813C403.786 394.068 409.294 394.526 414.421 395.203C414.768 395.248 415.011 395.567 414.966 395.914C414.92 396.261 414.602 396.505 414.256 396.459C409.167 395.787 403.696 395.333 397.896 395.078C384.719 394.501 370.629 394.965 356.788 396.105L355.192 396.24C351.901 396.524 348.867 396.826 346.142 397.13L344.629 397.303L342.6 397.549L341.861 397.645C341.515 397.692 341.196 397.448 341.149 397.102C341.102 396.755 341.345 396.436 341.692 396.389L342.638 396.267C343.189 396.198 343.804 396.124 344.482 396.044L345.325 395.947C348.231 395.617 351.507 395.286 355.083 394.977Z" fill="#253368"/>
<path d="M381.68 395.662C381.906 395.662 382.093 395.826 382.128 396.041L382.134 396.115L382.123 399.411C382.111 401.917 382.087 404.697 382.051 407.682C381.948 416.159 381.762 424.626 381.472 432.53L381.383 434.857C381.016 444.045 380.522 451.751 379.884 457.534C379.857 457.783 379.633 457.962 379.384 457.935C379.136 457.907 378.956 457.683 378.984 457.434L379.136 455.993C379.749 449.911 380.221 441.929 380.567 432.497C380.835 425.165 381.015 417.347 381.122 409.486L381.172 405.278C381.188 403.714 381.2 402.218 381.209 400.799L381.228 396.12C381.227 395.865 381.43 395.662 381.68 395.662Z" fill="#597EF7"/>
<path fill-rule="evenodd" clip-rule="evenodd" d="M389.456 398.892C389.481 400.02 388.792 400.951 387.915 400.971C387.039 400.99 386.307 400.092 386.281 398.964C386.257 397.835 386.946 396.905 387.822 396.885C388.698 396.864 389.43 397.764 389.456 398.892Z" fill="white"/>
<path d="M445.651 333.007C445.774 332.789 446.05 332.711 446.268 332.835C446.462 332.944 446.544 333.175 446.474 333.378L446.44 333.452L433.026 357.261C432.903 357.479 432.627 357.556 432.409 357.433C432.215 357.324 432.133 357.093 432.203 356.89L432.237 356.815L445.651 333.007Z" fill="#DD936F"/>
<path fill-rule="evenodd" clip-rule="evenodd" d="M373.021 278.672L362.122 293.226L345.571 274.008L351.536 266.439L373.021 278.672Z" fill="#597EF7"/>
<path d="M373.52 279.452C373.832 279.334 374.181 279.493 374.298 279.806L374.423 280.169L374.546 280.559C374.612 280.771 374.682 281.008 374.758 281.273L374.913 281.829C375.229 282.986 375.573 284.397 375.94 286.084L376.127 286.961C377.281 292.465 378.431 299.675 379.506 308.81L379.706 310.534C380.729 319.529 381.629 329.911 382.375 341.779L382.447 342.933C383.67 362.805 383.527 379.851 382.657 392.628C382.634 392.961 382.345 393.213 382.013 393.19C381.68 393.167 381.428 392.879 381.451 392.545L381.536 391.237C382.326 378.664 382.419 362.154 381.24 343.007L381.096 340.714C380.341 328.961 379.434 318.692 378.406 309.807L378.306 308.952C377.205 299.606 376.029 292.292 374.851 286.773L374.758 286.341C374.337 284.398 373.946 282.83 373.596 281.606L373.457 281.13C373.412 280.983 373.371 280.848 373.331 280.724L373.166 280.231C373.049 279.918 373.207 279.569 373.52 279.452Z" fill="#253368"/>
<path d="M418.79 286.882C419.139 286.868 419.434 287.14 419.449 287.489L419.473 288.301C419.554 291.694 419.465 295.578 419.075 299.272C418.832 301.576 418.485 303.625 418.019 305.358L417.916 305.725L417.952 305.79L417.992 305.874C418.094 306.105 418.187 306.44 418.28 306.887C418.461 307.761 418.639 309.079 418.8 310.752L418.873 311.557C419.196 315.276 419.413 320.235 419.471 325.946C419.628 341.526 418.639 360.333 416.27 380.819L416.148 381.862L416.311 382.278L416.362 382.416C416.569 382.972 416.776 383.586 416.968 384.243C417.431 385.82 417.742 387.386 417.83 388.86C417.977 391.319 417.493 393.326 416.189 394.691C415.948 394.944 415.547 394.953 415.295 394.711C415.042 394.469 415.033 394.068 415.275 393.815C416.291 392.752 416.694 391.077 416.567 388.935C416.485 387.568 416.192 386.093 415.754 384.6C415.607 384.099 415.451 383.623 415.294 383.182L415.176 382.858C415.059 382.543 414.969 382.318 414.919 382.202C414.875 382.1 414.859 381.988 414.872 381.878C417.289 361.378 418.325 342.529 418.213 326.876L418.205 325.959C418.148 320.28 417.933 315.353 417.613 311.671L417.54 310.873C417.383 309.242 417.211 307.965 417.041 307.145C416.997 306.935 416.955 306.76 416.916 306.625L416.876 306.498C416.656 306.369 416.513 306.123 416.566 305.84L416.585 305.762C417.139 303.965 417.544 301.723 417.817 299.139C418.172 295.767 418.273 292.221 418.222 289.055L418.19 287.694C418.188 287.633 418.186 287.583 418.184 287.543C418.169 287.193 418.44 286.898 418.79 286.882Z" fill="#253368"/>
<path d="M387.896 298.145L387.767 298.144C387.399 298.143 387.108 298.455 387.134 298.823L388.743 321.385C388.758 321.599 388.881 321.791 389.068 321.895L401.327 328.657C401.538 328.773 401.795 328.76 401.993 328.623L411.385 322.113C411.539 322.006 411.637 321.837 411.655 321.651L411.715 320.879L411.765 320.105C411.786 319.737 411.808 319.336 411.829 318.902L411.845 318.57C412.041 314.295 412.102 308.763 411.947 301.936C411.942 301.692 411.797 301.473 411.575 301.373C408.548 300.008 403.718 299.122 397.735 298.607C395.582 298.421 393.405 298.296 391.29 298.221L389.976 298.18C389.157 298.158 388.456 298.148 387.896 298.145ZM389.98 320.951L388.445 299.416L389.466 299.435C390.001 299.447 390.597 299.464 391.245 299.487C393.34 299.562 395.496 299.686 397.626 299.869L398.155 299.916L399.193 300.016C403.976 300.499 407.899 301.248 410.515 302.298L410.69 302.371L410.711 303.353C410.822 309.288 410.766 314.184 410.6 318.068L410.533 319.459C410.512 319.855 410.49 320.218 410.469 320.549L410.419 321.241L401.595 327.357L389.98 320.951Z" fill="#253368"/>
<path fill-rule="evenodd" clip-rule="evenodd" d="M373.947 289.552C373.974 290.679 373.232 291.612 372.293 291.634C371.354 291.654 370.572 290.757 370.547 289.629C370.521 288.5 371.262 287.569 372.201 287.547C373.14 287.526 373.922 288.423 373.947 289.552Z" fill="white"/>
<path fill-rule="evenodd" clip-rule="evenodd" d="M376.796 310.267C376.823 311.395 376.081 312.328 375.142 312.349C374.203 312.369 373.421 311.472 373.395 310.345C373.37 309.216 374.11 308.284 375.05 308.263C375.989 308.241 376.771 309.14 376.796 310.267Z" fill="white"/>
<path fill-rule="evenodd" clip-rule="evenodd" d="M378.664 332.708C378.689 333.836 377.949 334.769 377.008 334.79C376.069 334.81 375.288 333.913 375.262 332.786C375.236 331.657 375.978 330.725 376.917 330.704C377.855 330.682 378.637 331.579 378.664 332.708Z" fill="white"/>
<path fill-rule="evenodd" clip-rule="evenodd" d="M379.479 353.81C379.505 354.939 378.764 355.87 377.824 355.892C376.885 355.912 376.104 355.015 376.077 353.887C376.053 352.758 376.794 351.827 377.733 351.806C378.672 351.784 379.453 352.682 379.479 353.81Z" fill="white"/>
<path fill-rule="evenodd" clip-rule="evenodd" d="M379.769 381.738C379.794 382.865 379.054 383.798 378.113 383.819C377.174 383.84 376.393 382.943 376.367 381.815C376.343 380.686 377.083 379.755 378.022 379.733C378.961 379.712 379.742 380.609 379.769 381.738Z" fill="white"/>
<path d="M345.392 274.138C345.622 273.94 345.958 273.946 346.181 274.139L346.244 274.203L361.779 292.301L372.7 279.412C372.897 279.18 373.23 279.134 373.48 279.289L373.552 279.342C373.784 279.539 373.831 279.872 373.675 280.122L373.622 280.195L362.243 293.625C362.023 293.885 361.637 293.908 361.388 293.692L361.324 293.628L345.328 274.991C345.11 274.738 345.139 274.356 345.392 274.138Z" fill="#253368"/>
<path d="M391.416 274.646C391.521 274.329 391.863 274.157 392.18 274.263C392.47 274.359 392.638 274.655 392.583 274.948L392.563 275.027L386.722 292.646C386.589 293.048 386.103 293.185 385.782 292.937L385.716 292.878L373.176 279.989C372.943 279.75 372.948 279.367 373.187 279.134C373.402 278.924 373.734 278.907 373.967 279.08L374.042 279.145L385.887 291.32L391.416 274.646Z" fill="#253368"/>
<path d="M391.663 404.339C391.91 404.301 392.142 404.47 392.18 404.718L392.224 405.016C392.259 405.257 392.298 405.539 392.339 405.858L392.441 406.667C392.525 407.364 392.608 408.118 392.687 408.923C393.167 413.809 393.347 418.83 393.051 423.524L392.996 424.327C392.197 434.927 389.02 441.646 382.658 442.556C382.41 442.591 382.181 442.419 382.145 442.171C382.11 441.923 382.282 441.693 382.53 441.658C388.465 440.809 391.475 434.139 392.147 423.467C392.439 418.828 392.261 413.853 391.785 409.011L391.69 408.079C391.625 407.474 391.558 406.902 391.491 406.368L391.382 405.531L391.285 404.857C391.246 404.61 391.416 404.378 391.663 404.339Z" fill="#597EF7"/>
<path d="M318.42 290.475C318.596 290.173 318.983 290.07 319.285 290.246L319.402 290.317C319.516 290.389 319.672 290.492 319.866 290.627C320.309 290.938 320.801 291.317 321.329 291.769C322.83 293.054 324.329 294.664 325.726 296.623C331.166 304.252 333.554 314.761 331.195 328.511C331.136 328.856 330.808 329.087 330.464 329.028C330.12 328.969 329.888 328.641 329.947 328.296C332.25 314.879 329.939 304.712 324.696 297.359C323.361 295.487 321.932 293.953 320.507 292.732C320.093 292.378 319.705 292.073 319.35 291.815L319.141 291.666C318.899 291.497 318.731 291.39 318.648 291.341C318.346 291.165 318.244 290.778 318.42 290.475Z" fill="#253368"/>
<path d="M284.526 341.509C284.778 341.266 285.178 341.272 285.421 341.524L285.661 341.765C285.768 341.869 285.9 341.997 286.058 342.148L286.534 342.594C286.949 342.977 287.409 343.388 287.913 343.821C289.929 345.555 292.218 347.29 294.733 348.909C302 353.586 309.64 356.359 317.276 356.285C317.625 356.282 317.911 356.562 317.915 356.912C317.918 357.262 317.637 357.549 317.288 357.552C309.37 357.629 301.505 354.774 294.049 349.975C291.481 348.322 289.146 346.552 287.088 344.782L286.491 344.261C286.107 343.921 285.751 343.597 285.425 343.292L285.047 342.933L284.512 342.405C284.269 342.154 284.275 341.752 284.526 341.509Z" fill="#DD936F"/>
<path d="M343.591 227.672C343.683 227.439 343.947 227.325 344.179 227.417L344.339 227.487C344.434 227.531 344.551 227.589 344.684 227.661C345.051 227.861 345.418 228.103 345.762 228.391C347.02 229.442 347.655 230.811 347.279 232.474C347.136 233.105 346.849 233.443 346.313 233.768L346.081 233.9C345.622 234.156 345.508 234.282 345.468 234.675C345.391 235.428 345.735 235.988 346.393 236.415C346.613 236.558 346.852 236.674 347.091 236.764L347.243 236.817C347.31 236.839 347.361 236.854 347.394 236.862C347.637 236.92 347.788 237.164 347.73 237.408C347.672 237.652 347.427 237.802 347.184 237.744C346.852 237.665 346.379 237.487 345.9 237.176C344.981 236.579 344.451 235.716 344.566 234.584C344.637 233.881 344.909 233.539 345.508 233.184L345.731 233.057C346.155 232.819 346.308 232.659 346.395 232.274C346.686 230.986 346.2 229.94 345.181 229.087C344.887 228.841 344.569 228.631 344.252 228.459L344.049 228.353C343.96 228.309 343.89 228.279 343.845 228.261C343.613 228.168 343.499 227.905 343.591 227.672Z" fill="#DD936F"/>
<path d="M400.065 459.101C400.315 459.083 400.532 459.272 400.549 459.521C400.565 459.746 400.414 459.945 400.202 459.995L400.129 460.006L385.181 461.057C384.931 461.075 384.714 460.887 384.697 460.637C384.681 460.412 384.832 460.214 385.044 460.164L385.117 460.152L400.065 459.101Z" fill="#597EF7"/>
<path fill-rule="evenodd" clip-rule="evenodd" d="M456.828 312.739L465.623 279.329C465.623 279.329 480.523 252.082 486.11 253.639C491.31 255.808 479.786 263.739 477.609 271.401C482.514 270.96 480.416 278.316 480.416 278.316C480.416 278.316 484.324 278.103 483.38 284.082C487.049 286.168 484.263 293.06 484.263 293.06C484.263 293.06 477.292 311.212 469.428 323.376C469.428 323.376 456.206 333.985 456.828 312.739Z" fill="#FFC999"/>
<path fill-rule="evenodd" clip-rule="evenodd" d="M458.713 301.47C458.713 301.47 459.909 290.045 460.852 284.219C461.796 278.394 459.157 267.951 463.436 270.652C466.315 272.47 465.932 278.717 465.913 283.319C465.894 287.922 473.512 298.693 468.118 306.341C464.473 311.508 458.592 312.286 458.713 301.47Z" fill="#FFC999"/>
<path d="M477.915 271.067C478.099 271.236 478.112 271.523 477.942 271.707L477.676 272.005L477.156 272.609C477.094 272.682 477.03 272.757 476.966 272.833C476.231 273.711 475.496 274.65 474.81 275.61C474.134 276.557 473.543 277.474 473.062 278.341C471.363 281.402 471.238 283.39 472.971 284.077C473.204 284.169 473.318 284.433 473.225 284.666C473.133 284.899 472.87 285.013 472.637 284.92C470.175 283.944 470.337 281.383 472.269 277.9C472.769 277.001 473.378 276.055 474.073 275.082C474.773 274.102 475.523 273.145 476.272 272.251L476.65 271.804L477.275 271.094C477.444 270.91 477.73 270.897 477.915 271.067Z" fill="#DD936F"/>
<path d="M480.309 278.262C480.465 278.458 480.432 278.744 480.236 278.9L479.954 279.13L479.594 279.433C479.468 279.541 479.337 279.654 479.2 279.774C478.42 280.456 477.639 281.188 476.912 281.937C476.152 282.72 475.495 283.478 474.972 284.192C473.491 286.213 473.256 287.583 474.397 288.255C474.827 288.508 475.302 288.572 475.834 288.462C476.688 288.287 477.645 287.675 478.62 286.763C479.044 286.366 479.442 285.94 479.802 285.513L480.109 285.139C480.169 285.062 480.217 284.999 480.251 284.953C480.399 284.751 480.682 284.707 480.884 284.855C481.086 285.003 481.13 285.287 480.982 285.489L480.754 285.784C480.679 285.877 480.593 285.983 480.494 286.099C480.113 286.551 479.691 287.003 479.239 287.426C478.153 288.442 477.069 289.134 476.016 289.351C475.273 289.504 474.57 289.41 473.937 289.037C472.152 287.985 472.484 286.053 474.241 283.655C474.792 282.904 475.475 282.116 476.262 281.305C477.008 280.536 477.806 279.788 478.604 279.09C478.883 278.846 479.143 278.626 479.376 278.432L479.672 278.19C479.868 278.034 480.153 278.066 480.309 278.262Z" fill="#DD936F"/>
<path d="M481.999 284.093C482.246 284.05 482.481 284.214 482.524 284.461C482.567 284.708 482.403 284.943 482.156 284.986C481.334 285.132 480.317 285.879 479.121 287.342C476.599 290.424 476.088 292.435 476.955 292.921C477.816 293.404 479.716 292.495 480.907 290.723C481.221 290.256 481.936 290.667 481.691 291.174C480.153 294.354 478.308 296.492 475.933 298.164C475.455 298.501 474.959 298.817 474.402 299.146L474.061 299.345C473.842 299.471 473.619 299.596 473.356 299.741L472.27 300.337C468.487 302.425 467.014 304.091 466.256 308.255C466.212 308.501 465.976 308.665 465.73 308.62C465.483 308.575 465.32 308.339 465.365 308.092C466.142 303.82 467.687 301.921 471.313 299.835L473.281 298.745C473.394 298.681 473.503 298.62 473.61 298.558C474.287 298.169 474.863 297.809 475.412 297.422C476.913 296.365 478.187 295.116 479.306 293.5L479.386 293.38L479.319 293.419C478.352 293.951 477.37 294.112 476.638 293.777L476.512 293.713C474.925 292.821 475.582 290.235 478.42 286.768C479.741 285.153 480.923 284.283 481.999 284.093Z" fill="#DD936F"/>
<path d="M465.892 277.115C466.116 277.092 466.318 277.237 466.375 277.448L466.388 277.521L467.261 286.164L467.337 286.29C467.442 286.465 467.558 286.667 467.683 286.894C468.038 287.542 468.393 288.263 468.725 289.04C469.68 291.279 470.253 293.522 470.249 295.634C470.246 297.196 469.921 298.626 469.232 299.889C469.112 300.108 468.836 300.189 468.617 300.069C468.397 299.949 468.317 299.673 468.437 299.453C469.049 298.332 469.34 297.05 469.342 295.632C469.346 293.662 468.802 291.531 467.891 289.397C467.572 288.649 467.23 287.954 466.888 287.331L466.62 286.857C466.544 286.728 466.483 286.628 466.439 286.559C466.414 286.519 466.395 286.476 466.383 286.43L466.37 286.36L465.487 277.612C465.461 277.363 465.643 277.14 465.892 277.115Z" fill="#DD936F"/>
<path d="M275.312 189.688H261.688C252.851 189.688 245.688 196.851 245.688 205.687L245.687 219.312C245.687 228.149 252.851 235.312 261.687 235.312H275.312C284.149 235.312 291.312 228.149 291.312 219.312V205.688C291.312 196.851 284.149 189.688 275.312 189.688Z" fill="#597EF7"/>
<path d="M203.562 618.5C203.562 624.541 208.459 629.438 214.5 629.438C220.541 629.438 225.437 624.541 225.437 618.5C225.437 612.459 220.541 607.562 214.5 607.562C208.459 607.562 203.562 612.459 203.562 618.5Z" fill="#597EF7"/>
</svg>
