<svg width="1024" height="1024" viewBox="0 0 1024 1024" fill="none" xmlns="http://www.w3.org/2000/svg">
<path fill-rule="evenodd" clip-rule="evenodd" d="M944 518C944 756.586 750.588 950 512 950C273.412 950 80 756.586 80 518C80 279.413 273.412 85.9995 512 85.9995C750.588 85.9995 944 279.413 944 518Z" fill="#ADC6FF"/>
<path fill-rule="evenodd" clip-rule="evenodd" d="M493.637 443.474C493.637 493.702 452.919 534.421 402.69 534.421C352.461 534.421 311.743 493.702 311.743 443.474C311.743 393.244 352.461 352.526 402.69 352.526C452.919 352.526 493.637 393.244 493.637 443.474Z" fill="white"/>
<path fill-rule="evenodd" clip-rule="evenodd" d="M710.901 443.474C710.901 493.702 670.182 534.421 619.953 534.421C569.725 534.421 529.006 493.702 529.006 443.474C529.006 393.244 569.725 352.526 619.953 352.526C670.182 352.526 710.901 393.244 710.901 443.474Z" fill="white"/>
<path fill-rule="evenodd" clip-rule="evenodd" d="M435.946 444.737C435.946 465.665 418.98 482.631 398.05 482.631C377.122 482.631 360.155 465.665 360.155 444.737C360.155 423.808 377.122 406.842 398.05 406.842C418.98 406.842 435.946 423.808 435.946 444.737Z" fill="#253368"/>
<path fill-rule="evenodd" clip-rule="evenodd" d="M657.436 447.263C657.436 468.191 640.47 485.157 619.541 485.157C598.612 485.157 581.646 468.191 581.646 447.263C581.646 426.334 598.612 409.368 619.541 409.368C640.47 409.368 657.436 426.334 657.436 447.263Z" fill="#253368"/>
<path fill-rule="evenodd" clip-rule="evenodd" d="M595.839 677.54H428.162C409.226 677.54 393.734 662.048 393.734 643.113C393.734 624.178 409.226 608.686 428.162 608.686H595.839C614.774 608.686 630.266 624.178 630.266 643.113C630.266 662.048 614.774 677.54 595.839 677.54Z" fill="white"/>
<path fill-rule="evenodd" clip-rule="evenodd" d="M428.161 623.844C417.535 623.844 408.892 632.488 408.892 643.113C408.892 653.738 417.535 662.382 428.161 662.382H595.838C606.464 662.382 615.108 653.738 615.108 643.113C615.108 632.488 606.464 623.844 595.838 623.844H428.161ZM595.838 692.698H428.161C400.82 692.698 378.576 670.455 378.576 643.113C378.576 615.772 400.82 593.528 428.161 593.528H595.838C623.18 593.528 645.424 615.772 645.424 643.113C645.424 670.455 623.18 692.698 595.838 692.698Z" fill="#253368"/>
<path fill-rule="evenodd" clip-rule="evenodd" d="M942.514 260.786C942.514 314.657 898.844 358.327 844.974 358.327C791.103 358.327 747.432 314.657 747.432 260.786C747.432 206.915 844.974 74 844.974 74C844.974 74 942.514 206.915 942.514 260.786Z" fill="#597EF7"/>
</svg>
