<svg width="1024" height="1024" viewBox="0 0 1024 1024" fill="none" xmlns="http://www.w3.org/2000/svg">
<path fill-rule="evenodd" clip-rule="evenodd" d="M511.764 943.566C273.308 943.566 80 750.259 80 511.802C80 273.345 273.308 80.0378 511.764 80.0378C750.221 80.0378 943.527 273.345 943.527 511.802C943.527 750.259 750.221 943.566 511.764 943.566Z" fill="#ADC6FF"/>
<path fill-rule="evenodd" clip-rule="evenodd" d="M494.089 448.679C494.089 498.88 453.393 539.576 403.192 539.576C352.99 539.576 312.294 498.88 312.294 448.679C312.294 398.477 352.99 357.781 403.192 357.781C453.393 357.781 494.089 398.477 494.089 448.679Z" fill="white"/>
<path fill-rule="evenodd" clip-rule="evenodd" d="M711.234 448.679C711.234 498.88 670.538 539.576 620.336 539.576C570.135 539.576 529.438 498.88 529.438 448.679C529.438 398.477 570.135 357.781 620.336 357.781C670.538 357.781 711.234 398.477 711.234 448.679Z" fill="white"/>
<path fill-rule="evenodd" clip-rule="evenodd" d="M443.591 446.154C443.591 467.071 426.634 484.027 405.717 484.027C384.799 484.027 367.843 467.071 367.843 446.154C367.843 425.236 384.799 408.28 405.717 408.28C426.634 408.28 443.591 425.236 443.591 446.154Z" fill="#253368"/>
<path fill-rule="evenodd" clip-rule="evenodd" d="M655.685 446.154C655.685 467.071 638.729 484.027 617.811 484.027C596.895 484.027 579.938 467.071 579.938 446.154C579.938 425.236 596.895 408.28 617.811 408.28C638.729 408.28 655.685 425.236 655.685 446.154Z" fill="#253368"/>
<path fill-rule="evenodd" clip-rule="evenodd" d="M357.698 618.667C353.972 611.175 357.024 602.082 364.515 598.356C372.008 594.628 381.1 597.682 384.827 605.173C406.201 648.152 456.028 675.923 511.764 675.923C567.5 675.923 617.326 648.152 638.701 605.173C642.429 597.682 651.518 594.63 659.014 598.356C666.505 602.082 669.557 611.176 665.831 618.667C639.378 671.854 578.903 706.222 511.764 706.222C444.624 706.222 384.15 671.854 357.698 618.667Z" fill="#253368"/>
</svg>
