<svg width="105" height="104" viewBox="0 0 105 104" fill="none" xmlns="http://www.w3.org/2000/svg">
<rect x="0.5" width="104" height="104" rx="52" fill="white"/>
<g clip-path="url(#clip0_4103_7664)">
<g clip-path="url(#clip1_4103_7664)">
<path d="M40.5 49.5H34.5C33.9477 49.5 33.5 49.9477 33.5 50.5V74.5C33.5 75.0523 33.9477 75.5 34.5 75.5H40.5C41.0523 75.5 41.5 75.0523 41.5 74.5V50.5C41.5 49.9477 41.0523 49.5 40.5 49.5Z" fill="#FADB14"/>
<path d="M52.5 32.5H46.5C45.9477 32.5 45.5 32.9477 45.5 33.5V74.5C45.5 75.0523 45.9477 75.5 46.5 75.5H52.5C53.0523 75.5 53.5 75.0523 53.5 74.5V33.5C53.5 32.9477 53.0523 32.5 52.5 32.5Z" fill="#13C2C2"/>
<path d="M64.5 56.5H58.5C57.9477 56.5 57.5 56.9477 57.5 57.5V74.5C57.5 75.0523 57.9477 75.5 58.5 75.5H64.5C65.0523 75.5 65.5 75.0523 65.5 74.5V57.5C65.5 56.9477 65.0523 56.5 64.5 56.5Z" fill="#2F54EB"/>
<path d="M76.5 71.5H70.5C69.9477 71.5 69.5 71.9477 69.5 72.5V74.5C69.5 75.0523 69.9477 75.5 70.5 75.5H76.5C77.0523 75.5 77.5 75.0523 77.5 74.5V72.5C77.5 71.9477 77.0523 71.5 76.5 71.5Z" fill="#F5222D"/>
<path fill-rule="evenodd" clip-rule="evenodd" d="M24.9118 74.5H80.0882C80.3156 74.5 80.5 74.7239 80.5 75C80.5 75.2761 80.3156 75.5 80.0882 75.5H24.9118C24.6844 75.5 24.5 75.2761 24.5 75C24.5 74.7239 24.6844 74.5 24.9118 74.5Z" fill="#0D1A26"/>
<path d="M30 79.5L30 24.5C30 24.2239 29.7761 24 29.5 24C29.2239 24 29 24.2239 29 24.5L29 79.5C29 79.7761 29.2239 80 29.5 80C29.7761 80 30 79.7761 30 79.5Z" fill="#0D1A26"/>
</g>
</g>
<defs>
<clipPath id="clip0_4103_7664">
<rect width="56" height="56" fill="white" transform="translate(24.5 24)"/>
</clipPath>
<clipPath id="clip1_4103_7664">
<rect width="56" height="56" fill="white" transform="translate(24.5 24)"/>
</clipPath>
</defs>
</svg>