<svg width="105" height="104" viewBox="0 0 105 104" fill="none" xmlns="http://www.w3.org/2000/svg">
<rect x="0.5" width="104" height="104" rx="52" fill="white"/>
<g clip-path="url(#clip0_4103_7677)">
<path fill-rule="evenodd" clip-rule="evenodd" d="M45.975 51H73.1383C73.663 51 74.0883 51.4253 74.0883 51.95V79.05C74.0883 79.5747 73.663 80 73.1383 80H45.975C45.4504 80 45.025 79.5747 45.025 79.05V51.95C45.025 51.4253 45.4504 51 45.975 51Z" fill="#2F54EB"/>
<path d="M46.3683 44.6415C52.0807 44.6415 56.7116 40.0208 56.7116 34.3208C56.7116 28.6208 52.0807 24 46.3683 24C40.6559 24 36.025 28.6208 36.025 34.3208C36.025 40.0208 40.6559 44.6415 46.3683 44.6415Z" fill="#13C2C2"/>
<path d="M35.525 65.501C38.3002 65.501 40.55 63.2566 40.55 60.488C40.55 57.7194 38.3002 55.475 35.525 55.475C32.7498 55.475 30.5 57.7194 30.5 60.488C30.5 63.2566 32.7498 65.501 35.525 65.501Z" stroke="#0D1A26" stroke-width="0.95"/>
<path fill-rule="evenodd" clip-rule="evenodd" d="M47.2069 40L59.4887 61.2264H34.925L47.2069 40Z" fill="#FADB14"/>
<path d="M35.025 61.9913C35.5773 61.9913 36.025 61.5436 36.025 60.9913C36.025 60.439 35.5773 59.9913 35.025 59.9913C34.4727 59.9913 34.025 60.439 34.025 60.9913C34.025 61.5436 34.4727 61.9913 35.025 61.9913Z" fill="#F5222D"/>
</g>
<defs>
<clipPath id="clip0_4103_7677">
<rect width="56" height="56" fill="white" transform="translate(24.5 24)"/>
</clipPath>
</defs>
</svg>