<svg width="105" height="104" viewBox="0 0 105 104" fill="none" xmlns="http://www.w3.org/2000/svg">
<rect x="0.5" width="104" height="104" rx="52" fill="white"/>
<g clip-path="url(#clip0_4103_7651)">
<path d="M76.5519 56.2453H58.6332C58.1095 56.2453 57.6851 56.6706 57.6851 57.1953V75.1066C57.6851 75.6313 58.1095 76.0566 58.6332 76.0566H76.5519C77.0755 76.0566 77.5 75.6313 77.5 75.1066V57.1953C77.5 56.6706 77.0755 56.2453 76.5519 56.2453Z" fill="#2F54EB"/>
<path d="M39.7573 77C46.0107 77 51.0801 71.9316 51.0801 65.6793C51.0801 59.427 46.0107 54.3585 39.7573 54.3585C33.5038 54.3585 28.4344 59.427 28.4344 65.6793C28.4344 71.9316 33.5038 77 39.7573 77Z" fill="#13C2C2"/>
<path d="M66.7715 40.4902C68.0117 40.4902 69.017 39.485 69.017 38.2451C69.017 37.0052 68.0117 36 66.7715 36C65.5313 36 64.526 37.0052 64.526 38.2451C64.526 39.485 65.5313 40.4902 66.7715 40.4902Z" fill="#F5222D"/>
<path d="M66.9212 48.2797C72.3917 48.2797 76.8264 43.8463 76.8264 38.3773C76.8264 32.9084 72.3917 28.475 66.9212 28.475C61.4507 28.475 57.016 32.9084 57.016 38.3773C57.016 43.8463 61.4507 48.2797 66.9212 48.2797Z" stroke="#0D1A26" stroke-width="0.95"/>
<path fill-rule="evenodd" clip-rule="evenodd" d="M39.7573 27L52.0146 48.2264H27.5L39.7573 27Z" fill="#FADB14"/>
</g>
<defs>
<clipPath id="clip0_4103_7651">
<rect width="56" height="56" fill="white" transform="translate(24.5 24)"/>
</clipPath>
</defs>
</svg>