<svg width="105" height="104" viewBox="0 0 105 104" fill="none" xmlns="http://www.w3.org/2000/svg">
<rect x="0.5" width="104" height="104" rx="52" fill="white"/>
<g clip-path="url(#clip0_4103_7636)">
<path d="M52.5 66C64.098 66 73.5 56.598 73.5 45C73.5 33.402 64.098 24 52.5 24C40.902 24 31.5 33.402 31.5 45C31.5 56.598 40.902 66 52.5 66Z" fill="#FADB14"/>
<path d="M52.5 49V67" stroke="#0D1A26"/>
<path fill-rule="evenodd" clip-rule="evenodd" d="M40.5 64H64.5V71.2836C64.5 71.6792 64.1792 72 63.7836 72H41.2164C40.8208 72 40.5 71.6792 40.5 71.2836V64Z" fill="#13C2C2"/>
<path fill-rule="evenodd" clip-rule="evenodd" d="M60 70.5V74.2836L45.2164 74.5L45 70.5H60Z" stroke="#0D1A26"/>
<path fill-rule="evenodd" clip-rule="evenodd" d="M49 79H56C56.2761 79 56.5 79.2239 56.5 79.5C56.5 79.7761 56.2761 80 56 80H49C48.7239 80 48.5 79.7761 48.5 79.5C48.5 79.2239 48.7239 79 49 79Z" fill="#2F54EB"/>
<path fill-rule="evenodd" clip-rule="evenodd" d="M47.5887 47.288L52.5001 51L57.4116 47.288C57.7273 47.0494 57.7898 46.6001 57.5512 46.2845C57.4158 46.1053 57.2042 46 56.9797 46H48.0206C47.6249 46 47.3042 46.3208 47.3042 46.7164C47.3042 46.941 47.4095 47.1526 47.5887 47.288Z" fill="#F5222D"/>
<path d="M43 38C43.8284 38 44.5 37.3284 44.5 36.5C44.5 35.6716 43.8284 35 43 35C42.1716 35 41.5 35.6716 41.5 36.5C41.5 37.3284 42.1716 38 43 38Z" fill="white"/>
</g>
<defs>
<clipPath id="clip0_4103_7636">
<rect width="56" height="56" fill="white" transform="translate(24.5 24)"/>
</clipPath>
</defs>
</svg>