<svg width="513" height="440" viewBox="0 0 513 440" fill="none" xmlns="http://www.w3.org/2000/svg">
<path d="M460.234 325.5H427.766C427.067 325.5 426.5 326.067 426.5 326.766L426.5 359.234C426.5 359.933 427.067 360.5 427.766 360.5H460.234C460.933 360.5 461.5 359.933 461.5 359.234V326.766C461.5 326.067 460.933 325.5 460.234 325.5Z" fill="#597EF7"/>
<path d="M112.109 61.625H55.8907C55.1917 61.625 54.6251 62.1916 54.6251 62.8906L54.625 119.109C54.625 119.808 55.1916 120.375 55.8906 120.375H112.109C112.808 120.375 113.375 119.808 113.375 119.109V62.8906C113.375 62.1916 112.808 61.625 112.109 61.625Z" fill="#597EF7"/>
<path fill-rule="evenodd" clip-rule="evenodd" d="M239.314 358.769H290.261V318.739H239.314V358.769Z" fill="#597EF7"/>
<path fill-rule="evenodd" clip-rule="evenodd" d="M321.132 372.477H210.14C205.618 372.477 201.952 368.811 201.952 364.289C201.952 359.767 205.618 356.101 210.14 356.101H321.132C325.654 356.101 329.319 359.767 329.319 364.289C329.319 368.811 325.654 372.477 321.132 372.477Z" fill="#597EF7"/>
<path fill-rule="evenodd" clip-rule="evenodd" d="M435.96 321.338H91.1787C82.7147 321.338 75.8535 314.477 75.8535 306.013V95.8779C75.8535 87.4139 82.7147 80.5527 91.1787 80.5527H435.96C444.423 80.5527 451.285 87.4139 451.285 95.8779V306.013C451.285 314.477 444.423 321.338 435.96 321.338Z" fill="#253368"/>
<path fill-rule="evenodd" clip-rule="evenodd" d="M370.913 140.708H159.228V126.11C159.228 122.943 161.806 120.375 164.986 120.375H365.155C368.335 120.375 370.913 122.943 370.913 126.11V140.708Z" fill="#253368"/>
<path fill-rule="evenodd" clip-rule="evenodd" d="M174.072 129.922C174.072 131.909 172.464 133.521 170.481 133.521C168.498 133.521 166.89 131.909 166.89 129.922C166.89 127.934 168.498 126.323 170.481 126.323C172.464 126.323 174.072 127.934 174.072 129.922Z" fill="#FF7946"/>
<path fill-rule="evenodd" clip-rule="evenodd" d="M187.479 129.922C187.479 131.909 185.872 133.521 183.888 133.521C181.905 133.521 180.298 131.909 180.298 129.922C180.298 127.934 181.905 126.323 183.888 126.323C185.872 126.323 187.479 127.934 187.479 129.922Z" fill="#FAAD14"/>
<path fill-rule="evenodd" clip-rule="evenodd" d="M200.887 129.922C200.887 131.909 199.279 133.521 197.296 133.521C195.313 133.521 193.705 131.909 193.705 129.922C193.705 127.934 195.313 126.323 197.296 126.323C199.279 126.323 200.887 127.934 200.887 129.922Z" fill="#7CB305"/>
<path fill-rule="evenodd" clip-rule="evenodd" d="M165.427 281.44C161.887 281.44 159.016 278.876 159.016 275.714V139.36H370.711V275.714C370.711 278.876 367.841 281.44 364.299 281.44H165.427Z" fill="#E4EBF7"/>
<path d="M354.171 149.816H174.878C173.467 149.816 172.323 150.96 172.323 152.371V267.028C172.323 268.439 173.467 269.583 174.878 269.583H354.171C355.583 269.583 356.726 268.439 356.726 267.028V152.371C356.726 150.96 355.583 149.816 354.171 149.816Z" fill="white"/>
<path d="M260.723 166.926H194.185C191.561 166.926 189.433 169.054 189.433 171.678C189.433 174.303 191.561 176.431 194.185 176.431H260.723C263.347 176.431 265.475 174.303 265.475 171.678C265.475 169.054 263.347 166.926 260.723 166.926Z" fill="#FF7946"/>
<path d="M317.755 223.958H194.185C191.561 223.958 189.433 226.085 189.433 228.71C189.433 231.335 191.561 233.463 194.185 233.463H317.755C320.379 233.463 322.507 231.335 322.507 228.71C322.507 226.085 320.379 223.958 317.755 223.958Z" fill="#ADC6FF"/>
<path d="M298.744 242.968H194.185C191.561 242.968 189.433 245.096 189.433 247.721C189.433 250.346 191.561 252.474 194.185 252.474H298.744C301.369 252.474 303.497 250.346 303.497 247.721C303.497 245.096 301.369 242.968 298.744 242.968Z" fill="#7CB305"/>
<path d="M279.733 204.947H194.185C191.561 204.947 189.433 207.075 189.433 209.7C189.433 212.325 191.561 214.452 194.185 214.452H279.733C282.358 214.452 284.486 212.325 284.486 209.7C284.486 207.075 282.358 204.947 279.733 204.947Z" fill="#FAAD14"/>
<path d="M336.765 185.936H194.185C191.561 185.936 189.433 188.064 189.433 190.689C189.433 193.314 191.561 195.442 194.185 195.442H336.765C339.39 195.442 341.518 193.314 341.518 190.689C341.518 188.064 339.39 185.936 336.765 185.936Z" fill="#597EF7"/>
<path fill-rule="evenodd" clip-rule="evenodd" d="M87.4572 390.102H85.6795C83.2357 390.102 81.2354 388.108 81.2354 385.668V350.197C81.2354 347.758 83.2357 345.763 85.6795 345.763H87.4572C89.9009 345.763 91.9013 347.758 91.9013 350.197V385.668C91.9013 388.108 89.9009 390.102 87.4572 390.102Z" fill="#253368"/>
<path fill-rule="evenodd" clip-rule="evenodd" d="M140.271 391.427C140.271 394.366 137.884 396.748 134.938 396.748H38.9498C36.0042 396.748 33.6168 394.366 33.6168 391.427C33.6168 388.489 36.0042 386.106 38.9498 386.106H134.938C137.884 386.106 140.271 388.489 140.271 391.427Z" fill="#253368"/>
<path fill-rule="evenodd" clip-rule="evenodd" d="M71.4045 400.416C69.9382 400.416 68.739 399.218 68.739 397.755V385.098C68.739 383.635 69.9382 382.439 71.4045 382.439H101.732C103.199 382.439 104.399 383.635 104.399 385.098V397.755C104.399 399.218 103.199 400.416 101.732 400.416H71.4045Z" fill="#ADC6FF"/>
<path d="M73.1672 385.06V397.795" stroke="#597EF7" stroke-width="6" stroke-linecap="round" stroke-linejoin="round"/>
<path d="M99.5264 385.06V397.795" stroke="#597EF7" stroke-width="6" stroke-linecap="round" stroke-linejoin="round"/>
<path fill-rule="evenodd" clip-rule="evenodd" d="M36.9447 366.301H136.942V249.756H36.9447V366.301Z" fill="#253368"/>
<path fill-rule="evenodd" clip-rule="evenodd" d="M36.4959 367.306C33.9927 367.306 31.9449 365.263 31.9449 362.767V335.929C31.9449 333.432 33.9927 331.389 36.4959 331.389H137.392C139.894 331.389 141.943 333.432 141.943 335.929V362.767C141.943 365.263 139.894 367.306 137.392 367.306H36.4959Z" fill="#ADC6FF"/>
<path fill-rule="evenodd" clip-rule="evenodd" d="M36.4959 283.453C33.9927 283.453 31.9449 281.41 31.9449 278.912V252.075C31.9449 249.579 33.9927 247.535 36.4959 247.535H137.392C139.894 247.535 141.943 249.579 141.943 252.075V278.912C141.943 281.41 139.894 283.453 137.392 283.453H36.4959Z" fill="#ADC6FF"/>
<path fill-rule="evenodd" clip-rule="evenodd" d="M44.6952 268.899C42.8107 268.899 41.283 267.374 41.283 265.494C41.283 263.614 42.8107 262.089 44.6952 262.089C46.5807 262.089 48.1084 263.614 48.1084 265.494C48.1084 267.374 46.5807 268.899 44.6952 268.899Z" fill="white"/>
<path fill-rule="evenodd" clip-rule="evenodd" d="M51.801 265.494C51.801 263.614 53.3288 262.089 55.2143 262.089C57.0987 262.089 58.6275 263.614 58.6275 265.494C58.6275 267.374 57.0987 268.899 55.2143 268.899C53.3288 268.899 51.801 267.374 51.801 265.494Z" fill="white"/>
<path fill-rule="evenodd" clip-rule="evenodd" d="M65.7337 268.899C63.8482 268.899 62.3204 267.374 62.3204 265.494C62.3204 263.614 63.8482 262.089 65.7337 262.089C67.6181 262.089 69.1459 263.614 69.1459 265.494C69.1459 267.374 67.6181 268.899 65.7337 268.899Z" fill="white"/>
<path fill-rule="evenodd" clip-rule="evenodd" d="M101.955 268.899C101.435 268.899 101.014 268.479 101.014 267.96V263.028C101.014 262.51 101.435 262.089 101.955 262.089H134.201C134.721 262.089 135.142 262.51 135.142 263.028V267.96C135.142 268.479 134.721 268.899 134.201 268.899H101.955Z" fill="#597EF7"/>
<path fill-rule="evenodd" clip-rule="evenodd" d="M36.4959 325.38C33.9927 325.38 31.9449 323.337 31.9449 320.839V294.002C31.9449 291.505 33.9927 289.461 36.4959 289.461H137.392C139.894 289.461 141.943 291.505 141.943 294.002V320.839C141.943 323.337 139.894 325.38 137.392 325.38H36.4959Z" fill="#ADC6FF"/>
<path fill-rule="evenodd" clip-rule="evenodd" d="M44.6952 312.043C42.8107 312.043 41.283 310.518 41.283 308.637C41.283 306.757 42.8107 305.233 44.6952 305.233C46.5807 305.233 48.1084 306.757 48.1084 308.637C48.1084 310.518 46.5807 312.043 44.6952 312.043Z" fill="#FF7946"/>
<path fill-rule="evenodd" clip-rule="evenodd" d="M55.2143 312.043C53.3288 312.043 51.801 310.518 51.801 308.637C51.801 306.757 53.3288 305.233 55.2143 305.233C57.0987 305.233 58.6275 306.757 58.6275 308.637C58.6275 310.518 57.0987 312.043 55.2143 312.043Z" fill="#253368"/>
<path fill-rule="evenodd" clip-rule="evenodd" d="M65.7337 312.043C63.8482 312.043 62.3204 310.518 62.3204 308.637C62.3204 306.757 63.8482 305.233 65.7337 305.233C67.6181 305.233 69.1459 306.757 69.1459 308.637C69.1459 310.518 67.6181 312.043 65.7337 312.043Z" fill="#253368"/>
<path fill-rule="evenodd" clip-rule="evenodd" d="M134.004 312.043H102.151C101.523 312.043 101.014 311.535 101.014 310.908V306.367C101.014 305.74 101.523 305.233 102.151 305.233H134.004C134.633 305.233 135.142 305.74 135.142 306.367V310.908C135.142 311.535 134.633 312.043 134.004 312.043Z" fill="#FF7946"/>
<path fill-rule="evenodd" clip-rule="evenodd" d="M41.283 349.599C41.283 347.718 42.8107 346.194 44.6952 346.194C46.5807 346.194 48.1084 347.718 48.1084 349.599C48.1084 351.479 46.5807 353.004 44.6952 353.004C42.8107 353.004 41.283 351.479 41.283 349.599Z" fill="white"/>
<path fill-rule="evenodd" clip-rule="evenodd" d="M55.2143 353.004C53.3288 353.004 51.801 351.479 51.801 349.599C51.801 347.718 53.3288 346.194 55.2143 346.194C57.0987 346.194 58.6275 347.718 58.6275 349.599C58.6275 351.479 57.0987 353.004 55.2143 353.004Z" fill="white"/>
<path fill-rule="evenodd" clip-rule="evenodd" d="M65.7337 353.004C63.8482 353.004 62.3204 351.479 62.3204 349.599C62.3204 347.718 63.8482 346.194 65.7337 346.194C67.6181 346.194 69.1459 347.718 69.1459 349.599C69.1459 351.479 67.6181 353.004 65.7337 353.004Z" fill="white"/>
<path fill-rule="evenodd" clip-rule="evenodd" d="M134.004 353.004H102.151C101.523 353.004 101.014 352.495 101.014 351.869V347.328C101.014 346.702 101.523 346.194 102.151 346.194H134.004C134.633 346.194 135.142 346.702 135.142 347.328V351.869C135.142 352.495 134.633 353.004 134.004 353.004Z" fill="#597EF7"/>
<path fill-rule="evenodd" clip-rule="evenodd" d="M420 14.5312C376.663 14.5312 341.531 49.6628 341.531 93C341.531 136.337 376.663 171.469 420 171.469C463.337 171.469 498.469 136.337 498.469 93C498.469 49.6628 463.337 14.5312 420 14.5312Z" fill="#8BBC06"/>
<path fill-rule="evenodd" clip-rule="evenodd" d="M407.356 119.655L402.402 114.701L450.408 66.5199C452.05 64.8781 454.711 64.8781 456.353 66.5199L458.335 68.5014C459.976 70.1431 459.976 72.8047 458.335 74.4464L413.301 119.655C411.659 121.297 408.998 121.297 407.356 119.655Z" fill="white"/>
<path fill-rule="evenodd" clip-rule="evenodd" d="M418.246 114.701L413.292 119.655C411.651 121.297 408.989 121.297 407.348 119.655L387.621 99.9284C385.979 98.2869 385.979 95.6253 387.621 93.9835L389.602 92.002C391.244 90.3603 393.906 90.3603 395.547 92.002L418.246 114.701Z" fill="white"/>
</svg>
